<?xml version="1.0" encoding="UTF-8"?>
<svg id="Layer_1" data-name="Layer 1" xmlns="http://www.w3.org/2000/svg" version="1.1" viewBox="0 0 220.5 220.5">
  <defs>
    <style>
      .cls-1, .cls-2, .cls-3, .cls-4, .cls-5, .cls-6, .cls-7, .cls-8 {
        stroke: #0a1530;
        stroke-width: .5px;
      }

      .cls-1, .cls-2, .cls-5, .cls-8 {
        stroke-miterlimit: 10;
      }

      .cls-1, .cls-6, .cls-9 {
        fill: #0a1530;
      }

      .cls-10 {
        fill: #c3cfe6;
      }

      .cls-10, .cls-11, .cls-12, .cls-13, .cls-14, .cls-15, .cls-9, .cls-16 {
        stroke-width: 0px;
      }

      .cls-11, .cls-3 {
        fill: none;
      }

      .cls-12, .cls-5 {
        fill: #dee6f3;
      }

      .cls-2, .cls-4 {
        fill: #fff;
      }

      .cls-3, .cls-4, .cls-6, .cls-7 {
        stroke-linecap: round;
        stroke-linejoin: round;
      }

      .cls-13 {
        fill: #356efd;
      }

      .cls-14 {
        fill: #1b479e;
      }

      .cls-7 {
        fill: #fae354;
      }

      .cls-15 {
        fill: #356efc;
      }

      .cls-16 {
        fill: #00da71;
      }

      .cls-8 {
        fill: #0a1530;
      }
    </style>
  </defs>
  <rect class="cls-11" x=".2" y=".2" width="220" height="220"/>
  <g>
    <polyline class="cls-3" points="64 186.5 64 95.2 124.2 95.2"/>
    <polygon class="cls-4" points="169.6 82.3 212.7 186.6 182.8 186.6 184.9 181.4 134.9 91.2 169.6 82.3"/>
    <polygon class="cls-6" points="202.9 186.6 159.5 92.1 140.5 99.6 184.5 181.4 182.4 186.6 202.9 186.6"/>
    <polygon class="cls-8" points="186.7 123.6 169.4 121.7 169.4 115.6 184.8 118.8 186.7 123.6"/>
    <path class="cls-5" d="M140.3,77.4c-.4,0-.7,0-1.1,0-2.5-.3-24.8-3.8-34.5-16.5-2.6-3.4-2-8.3,1.4-10.9,3.4-2.6,8.3-2,10.9,1.4,2.3,3,7.3,5.9,14,8.1,2.5.8,5.1,1.5,7.7,2l4.9-3c3.7-2.3,8.5-1.1,10.7,2.5,2.3,3.7,1.1,8.5-2.5,10.7h0l-7.5,4.6c-1.2.8-2.7,1.2-4.1,1.2Z"/>
    <circle class="cls-2" cx="140" cy="42.1" r="8.3"/>
    <path class="cls-12" d="M145.9,36.3c-1.8-1.9-4.4-2.7-7-2.4,1.1.4,2.2,1.1,3,2,3.2,3.3,3.2,8.5-.1,11.7-1.3,1.3-3,2.1-4.7,2.3,4.3,1.6,9.1-.6,10.7-4.9,1.1-3,.4-6.4-1.9-8.7Z"/>
    <path class="cls-1" d="M154.6,143.1h-9.1c12,0,21.7,9.7,21.7,21.7h0c0,12-9.7,21.7-21.7,21.7h9.1c12,0,21.7-9.7,21.7-21.7h0c0-12-9.8-21.7-21.7-21.7Z"/>
    <rect class="cls-3" x="102.9" y="143.1" width="64.3" height="43.5" rx="14.8" ry="14.8"/>
    <path class="cls-4" d="M161.1,95.4l-3.7,22.9,37.8,5.6,4.2,28-6-3.4-56.3-5.5c-9.7,0-17.5-7.9-17.4-17.6,0-.9,0-1.7.2-2.6l6.1-30.6,36.9-8.1"/>
    <path class="cls-8" d="M145.8,81.7l-19.6-.6-2,12.9c3.4,0,6.7-1.1,9.4-3.2l12.2-9.1Z"/>
    <polygon class="cls-15" points="185.8 122.7 189.2 148 193.4 148.4 199.1 151.6 195 124.1 185.8 122.7"/>
    <path class="cls-15" d="M184.9,181.4l-2.1,5.2h29.8l-3.7-9.1c0,.1-26,0-26,0l2.1,3.9Z"/>
    <path class="cls-10" d="M112.3,48.5l.8.3s2.7,15.4,6.6,22.7c-1-.4-4.4-2.2-4.4-2.2l-3.1-20.8Z"/>
    <polygon class="cls-14" points="202.4 186.7 182.4 186.6 184.5 181.4 182.4 177.5 198.5 177.6 202.4 186.7"/>
    <path class="cls-1" d="M137.4,79.9l31-4.5s.9,4.5,1.3,6.9c-7.4,4.6-18.4,7.3-32.3,7.5-3.8,0,0-9.9,0-9.9Z"/>
    <path class="cls-2" d="M122,100.5c-1.9,0-3.8-.3-5.6-1-.3-.1-.6-.3-1-.4-7.7-4.1-16.6-7.9-19.3-8.3-4.6.5-8.8-2.8-9.3-7.4-.5-4.4,2.5-8.4,6.8-9.2,3-.6,7.4-.4,19.1,4.8,3.9,1.7,7.4,3.5,9.2,4.5l19.7-19.8c3.3-3.3,8.6-3.3,11.9,0,3.3,3.3,3.3,8.6,0,11.9h0l-20.3,20.4c-3,3-7,4.6-11.2,4.6Z"/>
    <path class="cls-12" d="M118.9,82.1h-.1c.9,3.9,4.7,6.2,8.7,5.3.5-.1.9-.2,1.3-.4l20.2-7.3-26.9,3.9-3.2-1.5Z"/>
    <path class="cls-15" d="M142.4,54.9c-11.8,1.7-20.8,11.3-21.7,23.2-.1,1.6.1,5,.1,5l1.3.5,49.2-7.1c-2-13.9-14.9-23.6-28.9-21.6,0,0,0,0,0,0Z"/>
    <ellipse class="cls-9" cx="143.1" cy="56.4" rx="4.8" ry="1" transform="translate(-6.6 21.2) rotate(-8.3)"/>
    <path class="cls-12" d="M105.8,76.3l-6.8-.3c-2.5,0-5,.3-7.3,1.3l-4.1,1.7c.3-.8.8-1.7,1.4-2.4l12.2-1.7c1.7.4,4.6,1.5,4.6,1.5Z"/>
    <rect class="cls-6" x="79.1" y="49.8" width="9.7" height="27.2" transform="translate(-8.3 12.7) rotate(-8.3)"/>
    <rect class="cls-4" x="88.6" y="47.3" width="25.3" height="27.2" transform="translate(-7.7 15.2) rotate(-8.3)"/>
    <polygon class="cls-15" points="142.7 186.7 129.8 186.7 114.9 172.7 127.6 172.5 142.7 186.7"/>
    <polygon class="cls-16" points="171.9 99.5 184.8 99.5 199.7 85.6 187 85.4 171.9 99.5"/>
    <line class="cls-7" x1="153.2" y1="74.7" x2="149.5" y2="79.7"/>
    <circle class="cls-3" cx="140" cy="42.1" r="8.3"/>
    <line class="cls-3" x1=".2" y1="186.7" x2="220.2" y2="186.7"/>
    <g>
      <path class="cls-13" d="M29.2,186.3l9.9-11.1c.2-.2,0-.5-.2-.5h-10.9c0,0-.2,0-.2,0l-9.3-10.4c0,0,0-.2,0-.3l15.5-26.5c0,0,0-.2,0-.3l-6.4-11.1c-.1-.2-.4-.2-.5,0l-22.9,39.3c0,.1,0,.2,0,.3l18.4,20.6c0,0,.1,0,.2,0h6.2c0,0,.2,0,.2,0"/>
      <path class="cls-13" d="M36,110.6l-6.4,11.1c0,0,0,.2,0,.3l6.7,11.5,17.7,30.4c0,.1,0,.2,0,.3l-9.3,10.5h0l-10,11.2c-.2.2,0,.5.2.5h14.9c0,0,.2,0,.2,0l18.4-20.6c0,0,0-.2,0-.3l-31.9-54.7c-.1-.2-.4-.2-.5,0"/>
    </g>
    <circle class="cls-3" cx="52.1" cy="113.5" r="11.9"/>
  </g>
</svg>