<svg width="48" height="48" viewBox="0 0 48 48" fill="none" xmlns="http://www.w3.org/2000/svg">
<path d="M8.00669 31.987C12.4287 31.987 16.0134 28.4023 16.0134 23.9803C16.0134 19.5584 12.4287 15.9736 8.00669 15.9736C3.58472 15.9736 0 19.5584 0 23.9803C0 28.4023 3.58472 31.987 8.00669 31.987Z" fill="url(#paint0_linear_3560_2923)"/>
<path d="M39.954 32.0271C44.3759 32.0271 47.9606 28.4423 47.9606 24.0204C47.9606 19.5984 44.3759 16.0137 39.954 16.0137C35.532 16.0137 31.9473 19.5984 31.9473 24.0204C31.9473 28.4423 35.532 32.0271 39.954 32.0271Z" fill="url(#paint1_linear_3560_2923)"/>
<path d="M16.0254 23.972C16.0254 19.5764 19.5884 16.0174 23.98 16.0174C28.3717 16.0174 31.9347 19.5804 31.9347 23.972V23.98H47.9601C47.9601 10.737 37.2231 0 23.98 0C10.737 0 0 10.737 0 23.98C0 28.4077 3.591 31.9987 8.0187 31.9987C12.4464 31.9987 15.9653 28.4718 16.0334 24.1001C16.0334 24.0561 16.0254 24.0161 16.0254 23.972Z" fill="url(#paint2_linear_3560_2923)"/>
<path d="M39.9414 16.001C35.5617 16.001 32.0107 19.5119 31.9307 23.8716C31.9307 23.9076 31.9347 23.9396 31.9347 23.9716C31.9347 24.7963 31.8066 25.593 31.5744 26.3456C30.5816 29.5963 27.555 31.9623 23.98 31.9623C20.4051 31.9623 17.3785 29.5963 16.3857 26.3456C16.1575 25.609 16.0334 24.8284 16.0294 24.0197H0C0 37.2627 10.737 47.9997 23.98 47.9997C37.2231 47.9997 47.9601 37.2627 47.9601 24.0197C47.9601 19.592 44.3691 16.001 39.9414 16.001Z" fill="url(#paint3_linear_3560_2923)"/>
<defs>
<linearGradient id="paint0_linear_3560_2923" x1="0" y1="23.9803" x2="16.0134" y2="23.9803" gradientUnits="userSpaceOnUse">
<stop stop-color="#00AA62" stop-opacity="0"/>
<stop offset="1" stop-color="#00AA62"/>
</linearGradient>
<linearGradient id="paint1_linear_3560_2923" x1="47.9606" y1="24.0204" x2="31.9473" y2="24.0204" gradientUnits="userSpaceOnUse">
<stop stop-color="#00AA62"/>
<stop offset="1" stop-color="#00AA62" stop-opacity="0"/>
</linearGradient>
<linearGradient id="paint2_linear_3560_2923" x1="0" y1="16.0014" x2="47.9601" y2="16.0014" gradientUnits="userSpaceOnUse">
<stop stop-color="#00AA62" stop-opacity="0"/>
<stop offset="1" stop-color="#00AA62"/>
</linearGradient>
<linearGradient id="paint3_linear_3560_2923" x1="0" y1="32.0023" x2="47.9601" y2="32.0023" gradientUnits="userSpaceOnUse">
<stop stop-color="#00AA62"/>
<stop offset="1" stop-color="#00AA62" stop-opacity="0"/>
</linearGradient>
</defs>
</svg>
