<?xml version="1.0" encoding="UTF-8"?>
<svg id="Layer_1" data-name="Layer 1" xmlns="http://www.w3.org/2000/svg" version="1.1" viewBox="0 0 220.5 220.5">
  <defs>
    <style>
      .cls-1 {
        fill: none;
      }

      .cls-1, .cls-2, .cls-3, .cls-4, .cls-5, .cls-6, .cls-7, .cls-8, .cls-9 {
        stroke-width: 0px;
      }

      .cls-2 {
        fill: #c3cfe6;
      }

      .cls-3 {
        fill: #356efd;
      }

      .cls-4 {
        fill: #0a1530;
      }

      .cls-5 {
        fill: #356efc;
      }

      .cls-6 {
        fill: #dee6f3;
      }

      .cls-7 {
        fill: #1b479e;
      }

      .cls-8 {
        fill: #fff;
      }

      .cls-9 {
        fill: #00da71;
      }
    </style>
  </defs>
  <rect class="cls-1" x=".2" y=".2" width="220" height="220"/>
  <g>
    <path class="cls-4" d="M64,186.8c-.1,0-.2-.1-.2-.2v-91.3c0-.1.1-.2.2-.2h60.2c.1,0,.2.1.2.2s-.1.2-.2.2h-60v91c0,.1-.1.2-.2.2Z"/>
    <g>
      <polygon class="cls-8" points="169.6 82.3 212.7 186.6 182.8 186.6 184.9 181.4 134.9 91.2 169.6 82.3"/>
      <path class="cls-4" d="M212.7,186.8h-29.9c0,0-.2,0-.2-.1,0,0,0-.2,0-.2l2.1-5.1-49.9-90.1c0,0,0-.1,0-.2,0,0,0-.1.2-.1l34.7-8.9c.1,0,.2,0,.3.1l43.1,104.3c0,0,0,.2,0,.2,0,0-.1.1-.2.1ZM183.2,186.3h29.2l-42.9-103.8-34.2,8.8,49.8,89.9c0,0,0,.1,0,.2l-2,4.9Z"/>
    </g>
    <g>
      <polygon class="cls-4" points="202.9 186.6 159.5 92.1 140.5 99.6 184.5 181.4 182.4 186.6 202.9 186.6"/>
      <path class="cls-4" d="M202.9,186.8h-20.5c0,0-.2,0-.2-.1,0,0,0-.2,0-.2l2.1-5.1-43.9-81.7c0,0,0-.1,0-.2,0,0,0-.1.1-.1l19-7.5c.1,0,.3,0,.3.1l43.4,94.5c0,0,0,.2,0,.2,0,0-.1.1-.2.1ZM182.8,186.3h19.7l-43.1-93.9-18.5,7.3,43.9,81.6c0,0,0,.1,0,.2l-2,4.9Z"/>
    </g>
    <g>
      <polygon class="cls-4" points="186.7 123.6 169.4 121.7 169.4 115.6 184.8 118.8 186.7 123.6"/>
      <path class="cls-4" d="M187.1,123.9l-17.9-2v-6.6l15.8,3.3,2.1,5.3ZM169.7,121.5l16.7,1.8-1.7-4.3-15-3.1v5.6Z"/>
    </g>
    <g>
      <path class="cls-6" d="M140.3,77.4h-1.1c-2.5-.3-24.8-3.8-34.5-16.5-2.6-3.4-2-8.3,1.4-10.9,3.4-2.6,8.3-2,10.9,1.4,2.3,3,7.3,5.9,14,8.1,2.5.8,5.1,1.5,7.7,2l4.9-3c3.7-2.3,8.5-1.1,10.7,2.5,2.3,3.7,1.1,8.5-2.5,10.7h0l-7.5,4.6c-1.2.8-2.7,1.2-4.1,1.2h.1Z"/>
      <path class="cls-4" d="M140.2,77.8h-.6,0c0-.1-.5-.1-.5-.1,0,0-6.7-.8-14.6-3.6-9.2-3.2-16-7.6-20.1-13-2.7-3.5-2-8.6,1.4-11.3,1.7-1.3,3.8-1.9,5.9-1.6,2.1.3,4,1.4,5.3,3,2.3,3,7.2,5.8,13.9,8,2.7.8,5.2,1.5,7.6,2l4.8-2.9c1.8-1.1,4-1.5,6.1-1,2.1.5,3.8,1.8,5,3.6,1.1,1.8,1.5,4,1,6.1-.5,2.1-1.8,3.8-3.6,5l-7.5,4.6c-1.2.8-2.7,1.2-4.2,1.2ZM140.3,77.1h.6,0c1.2,0,2.4-.4,3.3-1.1l7.5-4.6c1.7-1,2.9-2.7,3.4-4.6.5-2,.1-4-.9-5.7-1-1.7-2.7-2.9-4.6-3.4-2-.5-4-.1-5.7.9l-5,3.1h0c-2.4-.5-5-1.2-7.7-2-6.8-2.2-11.8-5.1-14.1-8.2-1.2-1.6-3-2.6-5-2.9-2-.2-4,.3-5.6,1.5-1.6,1.2-2.6,3-2.9,5-.3,2,.3,4,1.5,5.6,4,5.3,10.7,9.6,19.8,12.8,7.9,2.8,14.4,3.6,14.5,3.6h1.1Z"/>
    </g>
    <g>
      <circle class="cls-8" cx="140" cy="42.1" r="8.3"/>
      <path class="cls-4" d="M140,50.6c-4.7,0-8.5-3.8-8.5-8.5s3.8-8.6,8.5-8.6,8.5,3.8,8.5,8.6-3.8,8.5-8.5,8.5ZM140,34c-4.4,0-8,3.6-8,8.1s3.6,8,8,8,8-3.6,8-8-3.6-8.1-8-8.1Z"/>
    </g>
    <path class="cls-6" d="M145.9,36.3c-1.8-1.9-4.4-2.7-7-2.4,1.1.4,2.2,1.1,3,2,3.2,3.3,3.2,8.5-.1,11.7-1.3,1.3-3,2.1-4.7,2.3,4.3,1.6,9.1-.6,10.7-4.9,1.1-3,.4-6.4-1.9-8.7Z"/>
    <g>
      <path class="cls-4" d="M154.6,143.1h-9.1c12,0,21.7,9.7,21.7,21.7h0c0,12-9.7,21.7-21.7,21.7h9.1c12,0,21.7-9.7,21.7-21.7h0c0-12-9.8-21.7-21.7-21.7Z"/>
      <path class="cls-4" d="M154.6,186.8h-9.1v-.5c11.8,0,21.5-9.6,21.5-21.5s-9.6-21.5-21.5-21.5v-.5h9.1c12.1,0,22,9.8,22,22s-9.8,22-22,22ZM150.2,186.2h4.4c11.8,0,21.5-9.6,21.5-21.5s-9.6-21.5-21.5-21.5h-4.4c9.9,2.1,17.3,10.9,17.3,21.5s-7.4,19.3-17.3,21.5Z"/>
    </g>
    <path class="cls-4" d="M152.4,186.8h-34.7c-8.3,0-15.1-6.8-15.1-15v-13.9c0-8.3,6.8-15.1,15.1-15.1h34.7c8.3,0,15,6.8,15,15.1v13.9c0,8.3-6.8,15-15,15ZM117.7,143.3c-8,0-14.6,6.5-14.6,14.6v13.9c0,8,6.5,14.5,14.6,14.5h34.7c8,0,14.5-6.5,14.5-14.5v-13.9c0-8-6.5-14.6-14.5-14.6h-34.7Z"/>
    <g>
      <path class="cls-8" d="M161.1,95.4l-3.7,22.9,37.8,5.6,4.2,28-6-3.4-56.3-5.5c-9.7,0-17.5-7.9-17.4-17.6,0-.9,0-1.7.2-2.6l6.1-30.6,36.9-8.1"/>
      <path class="cls-4" d="M199.4,152.2s0,0-.1,0l-6-3.4-56.2-5.5h0c-4.7,0-9.2-1.9-12.5-5.2-3.3-3.4-5.2-7.9-5.1-12.6,0-.9,0-1.7.2-2.7l6.1-30.6c0,0,0-.2.2-.2l36.9-8.1c.1,0,.3,0,.3.2,0,.1,0,.3-.2.3l-36.7,8.1-6.1,30.4c-.2.9-.2,1.7-.2,2.6,0,4.6,1.7,9,5,12.3,3.2,3.3,7.6,5.1,12.2,5.1l56.3,5.5s0,0,0,0l5.6,3.1-4.1-27.3-37.6-5.6c0,0-.1,0-.2,0,0,0,0-.1,0-.2l3.7-22.9c0-.1.1-.2.3-.2.1,0,.2.2.2.3l-3.7,22.6,37.5,5.6c.1,0,.2.1.2.2l4.2,28c0,0,0,.2-.1.2,0,0,0,0-.1,0Z"/>
    </g>
    <g>
      <path class="cls-4" d="M145.8,81.7l-19.6-.6-2,12.9c3.4,0,6.7-1.1,9.4-3.2,0,0,12.2-9.1,12.2-9.1Z"/>
      <path class="cls-4" d="M124.2,94.2h-.3l2.1-13.4,20.5.6-12.8,9.5c-2.7,2.1-6,3.2-9.5,3.2ZM126.4,81.4l-1.9,12.4c3.3,0,6.4-1.1,9-3.1l11.6-8.7-18.7-.6Z"/>
    </g>
    <polygon class="cls-5" points="185.8 122.7 189.2 148 193.4 148.4 199.1 151.6 195 124.1 185.8 122.7"/>
    <path class="cls-5" d="M184.9,181.4l-2.1,5.2h29.8l-3.7-9.1c0,.1-26,0-26,0l2.1,3.9h-.1Z"/>
    <path class="cls-2" d="M112.3,48.5l.8.3s2.7,15.4,6.6,22.7c-1-.4-4.4-2.2-4.4-2.2l-3.1-20.8h0Z"/>
    <polygon class="cls-7" points="202.4 186.7 182.4 186.6 184.5 181.4 182.4 177.5 198.5 177.6 202.4 186.7"/>
    <g>
      <path class="cls-4" d="M137.4,79.9l31-4.5s.9,4.5,1.3,6.9c-7.4,4.6-18.4,7.3-32.3,7.5-3.8,0,0-9.9,0-9.9Z"/>
      <path class="cls-4" d="M137.4,90c-.6,0-1.1-.2-1.5-.7-1.5-2.2,1.1-9.2,1.2-9.5h0c0-.1,31.4-4.7,31.4-4.7v.2c0,0,1,4.5,1.3,6.9v.2s-.1,0-.1,0c-7.6,4.7-18.8,7.3-32.4,7.5ZM137.6,80.1c-.4,1-2.5,7-1.2,8.9.2.3.6.5,1,.5,13.4-.2,24.5-2.7,32-7.4-.4-2.1-1-5.6-1.2-6.5l-30.6,4.4Z"/>
    </g>
    <g>
      <path class="cls-8" d="M122,100.5c-1.9,0-3.8-.3-5.6-1-.3,0-.6-.3-1-.4-7.7-4.1-16.6-7.9-19.3-8.3-4.6.5-8.8-2.8-9.3-7.4-.5-4.4,2.5-8.4,6.8-9.2,3-.6,7.4-.4,19.1,4.8,3.9,1.7,7.4,3.5,9.2,4.5l19.7-19.8c3.3-3.3,8.6-3.3,11.9,0,3.3,3.3,3.3,8.6,0,11.9h0l-20.3,20.4c-3,3-7,4.6-11.2,4.6h0Z"/>
      <path class="cls-4" d="M122,100.9h-.2c-1.9-.1-3.8-.5-5.4-1.1-.1,0-.2-.1-.4-.2-.2,0-.4-.2-.6-.2-7.5-4-16.5-7.9-19.2-8.3-2.3.2-4.5-.4-6.3-1.8-1.8-1.4-3-3.5-3.2-5.8-.5-4.5,2.6-8.6,7-9.5,3-.6,7.4-.4,19.2,4.8,3.7,1.6,7,3.3,9.1,4.4l19.6-19.7c1.6-1.6,3.8-2.5,6.1-2.5s4.5.9,6.1,2.5c3.4,3.4,3.4,8.9,0,12.3l-20.3,20.4c-3,3-7.1,4.7-11.4,4.7ZM96.1,90.5h0c2.8.4,11.8,4.3,19.4,8.3.2,0,.4.1.6.2.1,0,.2.1.3.1,1.7.7,3.5,1,5.5,1h.2c4.1,0,7.9-1.6,10.8-4.4l20.3-20.4c3.2-3.2,3.2-8.4,0-11.5-1.5-1.5-3.6-2.4-5.8-2.4s-4.2.9-5.8,2.4l-19.8,19.9h-.2c-2-1.2-5.4-2.9-9.2-4.6-11.7-5.2-16-5.4-19-4.8-4.2.8-7.1,4.7-6.6,8.9.2,2.2,1.3,4.1,3,5.4,1.7,1.4,3.8,2,6,1.7h0Z"/>
    </g>
    <path class="cls-6" d="M118.9,82.1h0c.9,3.9,4.7,6.2,8.7,5.3.5,0,.9-.2,1.3-.4l20.2-7.3-26.9,3.9-3.2-1.5Z"/>
    <path class="cls-5" d="M142.4,54.9c-11.8,1.7-20.8,11.3-21.7,23.2,0,1.6,0,5,0,5l1.3.5,49.2-7.1c-2-13.9-14.9-23.6-28.9-21.6h0Z"/>
    <ellipse class="cls-4" cx="143.1" cy="56.4" rx="4.8" ry="1" transform="translate(-6.6 21.3) rotate(-8.3)"/>
    <path class="cls-6" d="M105.8,76.3l-6.8-.3c-2.5,0-5,.3-7.3,1.3l-4.1,1.7c.3-.8.8-1.7,1.4-2.4l12.2-1.7c1.7.4,4.6,1.5,4.6,1.5h0Z"/>
    <g>
      <rect class="cls-4" x="79.1" y="49.7" width="9.7" height="27.2" transform="translate(-8.3 12.8) rotate(-8.3)"/>
      <path class="cls-4" d="M81.1,77.7c0,0-.1,0-.1,0,0,0,0,0,0-.2l-3.9-26.9c0-.1,0-.3.2-.3l9.6-1.4c0,0,.1,0,.2,0,0,0,0,0,0,.2l3.9,26.9c0,.1,0,.3-.2.3l-9.6,1.4s0,0,0,0ZM77.4,50.8l3.9,26.4,9.1-1.3-3.9-26.4-9.1,1.3Z"/>
    </g>
    <g>
      <rect class="cls-8" x="88.6" y="47.2" width="25.3" height="27.2" transform="translate(-7.7 15.3) rotate(-8.3)"/>
      <path class="cls-4" d="M90.7,76.4c-.1,0-.2,0-.2-.2l-3.9-26.9c0,0,0-.1,0-.2,0,0,0,0,.2,0l25-3.7c.1,0,.3,0,.3.2l3.9,26.9c0,0,0,.1,0,.2,0,0,0,0-.2,0l-25,3.7s0,0,0,0ZM87.1,49.4l3.9,26.4,24.5-3.6-3.9-26.4-24.5,3.6Z"/>
    </g>
    <polygon class="cls-5" points="142.7 186.7 129.8 186.7 114.9 172.7 127.6 172.5 142.7 186.7"/>
    <polygon class="cls-9" points="171.9 99.5 184.8 99.5 199.7 85.6 187 85.4 171.9 99.5"/>
    <path class="cls-4" d="M149.5,80c0,0-.1,0-.1,0-.1,0-.1-.2,0-.4l3.7-5c0-.1.2-.1.3,0,.1,0,.1.2,0,.4l-3.7,5c0,0-.1.1-.2.1Z"/>
    <path class="cls-4" d="M140,50.6c-4.7,0-8.5-3.8-8.5-8.5s3.8-8.6,8.5-8.6,8.5,3.8,8.5,8.6-3.8,8.5-8.5,8.5ZM140,34c-4.4,0-8,3.6-8,8.1s3.6,8,8,8,8-3.6,8-8-3.6-8.1-8-8.1Z"/>
    <path class="cls-4" d="M220.2,187H.2c-.1,0-.2-.1-.2-.2s.1-.2.2-.2h220c.1,0,.2.1.2.2s-.1.2-.2.2Z"/>
    <g>
      <path class="cls-3" d="M29.2,186.3l9.9-11.1c.2-.2,0-.5-.2-.5h-11.1l-9.3-10.4v-.3l15.5-26.5v-.3l-6.4-11.1c-.1-.2-.4-.2-.5,0l-22.9,39.3v.3l18.4,20.6h6.6"/>
      <path class="cls-3" d="M36,110.6l-6.4,11.1v.3l6.7,11.5,17.7,30.4v.3l-9.3,10.5h0l-10,11.2c-.2.2,0,.5.2.5h15.1l18.4-20.6v-.3l-31.9-54.7c0-.2-.4-.2-.5,0"/>
    </g>
    <path class="cls-4" d="M52.1,125.7c-6.7,0-12.1-5.5-12.1-12.2s5.5-12.1,12.1-12.1,12.1,5.5,12.1,12.1-5.5,12.2-12.1,12.2ZM52.1,101.9c-6.4,0-11.6,5.2-11.6,11.6s5.2,11.7,11.6,11.7,11.6-5.2,11.6-11.7-5.2-11.6-11.6-11.6Z"/>
  </g>
</svg>