<?xml version="1.0" encoding="UTF-8"?>
<svg xmlns="http://www.w3.org/2000/svg" version="1.1" viewBox="0 0 148.2 36">
  <defs>
    <style>
      .cls-1 {
        fill: #fff;
      }
    </style>
  </defs>
  <!-- Generator: Adobe Illustrator 28.6.0, SVG Export Plug-In . SVG Version: 1.2.0 Build 709)  -->
  <g>
    <g id="Layer_1">
      <path class="cls-1" d="M4.5,20.8h3.4v2.1h-3.4v4.9c0,.5.1,1,.4,1.3.3.3.7.4,1.2.4h1.7v2.5h-1.6c-1,0-1.9-.1-2.6-.4-.7-.3-1.2-.7-1.5-1.4-.3-.6-.5-1.5-.5-2.6v-4.8H0v-2.1h1.8v-3.1h2.7v3.1h0ZM15.9,20.5h-.1c-.9,0-1.6.2-2.1.6-.5.4-.9.9-1.2,1.6v-5.7h-2.9v14.9h2.9v-6.4c0-.7.2-1.3.6-1.7.4-.4,1-.7,1.6-.7s1.2.2,1.6.6c.4.4.6.9.6,1.6v6.6h2.9v-6.3c0-1.7-.3-2.9-1-3.8-.7-.9-1.6-1.3-2.9-1.3h0ZM31.8,23.3c.4.9.6,1.8.6,2.7v1.1h-8.3c0,.4.1.8.3,1.1.2.5.5.9,1,1.2.4.3,1,.4,1.7.4s1.2-.1,1.7-.4c.4-.3.7-.6.8-1h2.7c-.2.7-.5,1.4-.9,2-.5.6-1.1,1-1.8,1.3-.7.3-1.5.5-2.5.5s-1.8-.2-2.5-.5c-.7-.3-1.3-.8-1.8-1.3-.5-.6-.8-1.2-1.1-1.8-.2-.7-.4-1.4-.4-2.1v-.4c0-.7.1-1.4.4-2.1.2-.7.6-1.3,1.1-1.8s1.1-1,1.8-1.3c.7-.3,1.5-.5,2.4-.5s2.2.3,3,.8c.8.5,1.4,1.2,1.8,2.1h0ZM24.4,24.5c-.1.3-.2.5-.2.8h5.5c0-.3-.1-.7-.2-.9-.2-.5-.5-.9-.9-1.2-.4-.3-.9-.4-1.5-.4s-1.1.1-1.6.4c-.4.3-.8.7-1,1.2h0ZM46.5,23.8c-.8-.4-1.7-.6-2.8-.7h-1.3c-.7-.2-1.3-.4-1.6-.7-.3-.3-.5-.7-.5-1.2s0-.7.3-1c.2-.3.5-.6.8-.8.4-.2.8-.3,1.4-.3s1.1.1,1.5.3c.4.2.7.5.9.8.2.3.3.7.3,1.1h2.9c0-1-.2-1.8-.7-2.5-.4-.7-1.1-1.3-1.9-1.7-.8-.4-1.8-.6-3-.6s-2,.2-2.8.6c-.8.4-1.4.9-1.9,1.6-.5.7-.7,1.5-.7,2.5s.4,2.3,1.3,3.1c.9.8,2,1.2,3.5,1.3h1.3c.9.2,1.6.4,2.1.7.4.3.7.7.7,1.2s-.1.8-.3,1.1c-.2.3-.6.6-1,.8-.5.2-1,.3-1.7.3s-1.4-.1-1.9-.3c-.5-.2-.8-.5-1-.9-.2-.4-.3-.7-.3-1.2h-2.9c0,1,.2,1.8.7,2.5.5.7,1.2,1.3,2.1,1.7s2,.6,3.4.6,2.3-.2,3.2-.6c.9-.4,1.6-.9,2.1-1.7.5-.7.7-1.5.7-2.5s-.2-1.7-.7-2.3-1.1-1.1-1.9-1.5h0ZM57.7,27.4c0,.7-.2,1.2-.6,1.7-.4.4-.9.6-1.6.6s-1.1-.2-1.5-.6c-.4-.4-.6-.9-.6-1.6v-6.7h-2.9v6.4c0,1.7.3,2.9,1,3.8.7.8,1.7,1.3,3,1.3h.1c.9,0,1.6-.2,2.1-.6.6-.4,1-.9,1.3-1.7,0-.2.2-.5.2-.7v2.6h2.3v-11.1h-2.9v6.6ZM74.6,23.9c.2.7.4,1.4.4,2.2v.4c0,.8-.1,1.6-.3,2.2-.2.7-.6,1.3-1,1.8s-1,.9-1.6,1.2c-.6.3-1.4.4-2.2.4s-1.6-.2-2.3-.5c-.6-.3-1.1-.7-1.5-1.3v5.5h-2.9v-15.2h2.3v2.8c.1-.3.2-.6.4-.9.4-.8,1-1.3,1.7-1.7.7-.4,1.5-.6,2.3-.6s1.5.1,2.1.4c.6.3,1.2.7,1.6,1.2.5.5.8,1.1,1,1.8h0ZM72,26.3c0-.7-.1-1.3-.4-1.8-.3-.5-.6-.9-1.1-1.2-.4-.3-1-.4-1.6-.4s-1,.1-1.5.4c-.5.2-.8.6-1.1,1.1-.3.5-.4,1-.4,1.7v.8c0,.6.1,1.2.4,1.6.3.4.7.8,1.1,1s1,.4,1.5.4,1.1-.1,1.6-.4c.4-.3.8-.7,1.1-1.2.3-.5.4-1.1.4-1.8h0ZM86.4,23.3c.4.9.6,1.8.6,2.7v1.1h-8.3c0,.4.1.8.3,1.1.2.5.5.9,1,1.2s1,.4,1.7.4,1.2-.1,1.7-.4c.4-.3.7-.6.8-1h2.7c-.2.7-.5,1.4-.9,2-.5.6-1.1,1-1.8,1.3-.7.3-1.5.5-2.5.5s-1.8-.2-2.5-.5c-.7-.3-1.3-.8-1.8-1.3s-.8-1.2-1.1-1.8c-.2-.7-.4-1.4-.4-2.1v-.4c0-.7.1-1.4.4-2.1.2-.7.6-1.3,1.1-1.8.5-.5,1.1-1,1.8-1.3.7-.3,1.5-.5,2.4-.5s2.2.3,3,.8c.8.5,1.4,1.2,1.8,2.1h0ZM79,24.5c-.1.3-.2.5-.2.8h5.5c0-.3-.1-.7-.2-.9-.2-.5-.5-.9-.9-1.2-.4-.3-.9-.4-1.5-.4s-1.1.1-1.6.4c-.4.3-.8.7-1,1.2h0ZM91.9,21.9c-.5.6-.8,1.5-1,2.5v-3.6h-2.3v11.1h2.9v-5.8c0-1,.3-1.7.8-2.2.5-.5,1.2-.8,2.2-.8h.8v-2.6h-.4c-1.3,0-2.3.4-3,1.2h0ZM103.4,28.8c-.2.3-.5.5-.8.7-.3.2-.8.3-1.3.3s-1.2-.1-1.6-.4c-.4-.3-.7-.7-.9-1.2-.2-.5-.3-1.1-.3-1.7s.1-1.3.3-1.8c.2-.5.5-.9.9-1.2.4-.3.9-.4,1.5-.4s1.3.2,1.7.6c.4.4.6.9.7,1.4h2.9c0-.9-.3-1.7-.8-2.4-.5-.7-1.1-1.2-1.8-1.6-.8-.4-1.6-.6-2.6-.6s-1.7.2-2.4.5c-.7.3-1.3.7-1.8,1.3-.5.5-.8,1.2-1.1,1.8-.2.7-.4,1.4-.4,2.2v.4c0,.7.1,1.4.3,2.1.2.7.6,1.3,1.1,1.8.5.6,1.1,1,1.8,1.3.7.3,1.5.5,2.5.5s1.9-.2,2.7-.6c.8-.4,1.4-.9,1.9-1.6.5-.7.7-1.5.8-2.4h-2.8c0,.4-.2.7-.4,1h0ZM114.5,20.5h-.1c-.9,0-1.6.2-2.1.6-.5.4-.9.9-1.2,1.6v-5.7h-2.9v14.9h2.9v-6.4c0-.7.2-1.3.6-1.7.4-.4,1-.7,1.6-.7s1.2.2,1.6.6c.4.4.6.9.6,1.6v6.6h2.9v-6.3c0-1.7-.3-2.9-1-3.8s-1.6-1.3-2.9-1.3h0ZM129.1,22.5c.4.6.6,1.5.6,2.5v6.9h-2.3v-2.1c0,.3-.2.6-.3.8-.3.5-.7.9-1.3,1.2-.5.3-1.2.4-2,.4s-1.5-.1-2.1-.4c-.6-.3-1.1-.7-1.4-1.2-.3-.5-.5-1.2-.5-1.9s.2-1.5.6-2c.4-.5,1-.9,1.7-1.2s1.6-.4,2.6-.4h2.2c0-.7-.2-1.2-.5-1.5-.3-.3-.8-.5-1.4-.5s-.7,0-1.2,0c-.5,0-1,0-1.5,0s-.9,0-1.3,0v-2.5c.3,0,.7,0,1.1,0,.4,0,.8,0,1.2,0,.4,0,.8,0,1.2,0,1.1,0,2.1.2,2.9.5.8.3,1.3.8,1.7,1.4h0ZM126.5,29.2c.2-.3.3-.8.4-1.4v-1h-2.2c-.6,0-1.1.2-1.5.5-.3.3-.5.7-.5,1.2s.2.9.5,1.2c.3.3.8.5,1.5.5s.7,0,1.1-.2c.3-.1.6-.4.8-.7ZM131,20.8v2.2h1.6v8.9h2.9v-11.1h-4.5ZM133.6,19.5c.6,0,1-.1,1.2-.4.3-.3.4-.7.4-1.1s-.1-.8-.4-1.1c-.3-.3-.7-.4-1.2-.4s-1,.1-1.3.4c-.3.3-.4.7-.4,1.1s.1.8.4,1.1c.3.3.7.4,1.3.4ZM147.2,21.7c-.7-.9-1.7-1.3-3-1.3h-.1c-.9,0-1.6.2-2.2.6-.6.4-1,1-1.3,1.7-.1.3-.2.5-.2.8v-2.8h-2.3v11.1h2.9v-6.5c0-.7.2-1.3.6-1.7.4-.4,1-.6,1.6-.6s1.2.2,1.6.6c.4.4.6.9.6,1.6v6.6h2.9v-6.4c0-1.7-.3-3-1-3.8h0ZM73.5,1.8h2.6v7.5h1.7V1.8h2.6V.3h-6.9v1.5ZM95.6,2.9c.2.5.3,1.1.3,1.6v.3c0,.5,0,1-.3,1.6-.2.5-.5,1-.9,1.5-.4.5-.9.8-1.5,1.1-.6.3-1.3.4-2.1.4s-1.5-.1-2.1-.4c-.6-.3-1.1-.7-1.5-1.1-.4-.5-.7-1-.9-1.5-.2-.5-.3-1.1-.3-1.6v-.3c0-.5,0-1.1.3-1.6.2-.5.5-1,.9-1.5.4-.4.9-.8,1.5-1.1.6-.3,1.3-.4,2.1-.4s1.5.1,2.1.4c.6.3,1.1.6,1.5,1.1.4.4.7.9.9,1.5ZM94.1,4.7c0-.5,0-.9-.2-1.2-.1-.4-.3-.7-.6-1-.3-.3-.6-.5-.9-.7-.4-.2-.8-.2-1.2-.2s-.9,0-1.3.2c-.4.2-.7.4-1,.7-.3.3-.5.6-.6,1-.1.4-.2.8-.2,1.2s0,.8.2,1.2c.1.4.3.7.6,1,.3.3.6.5,1,.7s.8.2,1.3.2.9,0,1.2-.2c.4-.2.7-.4,1-.7.3-.3.5-.6.6-1,.1-.4.2-.8.2-1.2ZM105.3,7.8h-.2l-3.8-7.6h-2.8v9h1.6V1.7h.2l3.8,7.6h2.8V.3h-1.6v7.6ZM47.6,5.3c.3.3.4.8.4,1.3v.2c0,.5-.1,1-.4,1.4-.2.4-.6.7-1,.9-.5.2-1,.3-1.7.3h-3.6V.2h3.2c1,0,1.8.2,2.3.6.5.4.8,1,.8,1.8v.2c0,.6-.1,1-.4,1.3-.1.2-.3.3-.5.4.4.1.7.4.9.6h0ZM43,1.6v2.5h1.7c.4,0,.8-.1,1-.3.2-.2.3-.5.3-.9s-.1-.7-.3-.9c-.2-.2-.5-.3-1-.3h-1.7ZM46.3,6.6c0-.4-.1-.7-.3-.9-.2-.2-.5-.3-1-.3h-2v2.5h2c.4,0,.7-.1,1-.3s.3-.5.3-.9ZM56.6,5.7c0,.4,0,.8-.2,1.1-.2.3-.4.6-.7.7-.3.2-.7.3-1.2.3s-.9,0-1.2-.3c-.3-.2-.6-.4-.7-.8-.2-.3-.2-.7-.2-1.1V.3h-1.7v5.4c0,.8.1,1.5.4,2,.3.6.7,1,1.3,1.3.6.3,1.3.5,2.1.5s1.5-.2,2.1-.5c.6-.3,1-.8,1.3-1.3s.4-1.2.4-2V.3h-1.7v5.5h0ZM61.6,9.2h1.7V.3h-1.7v9ZM69,.3h-1.7v9h5.3v-1.5h-3.6V.3Z"/>
    </g>
  </g>
</svg>