<svg width="1012" height="349" viewBox="0 0 1012 349" fill="none" xmlns="http://www.w3.org/2000/svg">
<path d="M154.372 0L119.285 57.6889L234.098 245.73L137.974 348.871H219.32L308.796 253.021L154.372 0Z" fill="black"/>
<path d="M116.667 290.696L74.7927 245.719L145.273 130.201L110.103 72.624L0.0107422 253.01L89.4865 348.86H119.153L173.543 290.696H116.667Z" fill="black"/>
<path d="M952.883 348.871C933.469 348.871 918.043 344.971 906.603 337.171C895.163 329.371 888.923 318.625 887.883 304.931H922.723C923.589 310.825 926.536 315.331 931.563 318.451C936.763 321.398 943.869 322.871 952.883 322.871C961.029 322.871 966.923 321.745 970.563 319.491C974.376 317.065 976.283 313.685 976.283 309.351C976.283 306.058 975.156 303.545 972.903 301.811C970.823 299.905 966.923 298.345 961.203 297.131L939.883 292.711C924.109 289.418 912.496 284.478 905.043 277.891C897.589 271.131 893.863 262.465 893.863 251.891C893.863 239.065 898.803 229.098 908.683 221.991C918.563 214.711 932.343 211.071 950.023 211.071C967.529 211.071 981.483 214.625 991.883 221.731C1002.28 228.665 1008 238.371 1009.04 250.851H974.203C973.509 246.345 971.083 242.965 966.923 240.711C962.763 238.285 956.869 237.071 949.243 237.071C942.309 237.071 937.109 238.111 933.643 240.191C930.349 242.098 928.703 244.871 928.703 248.511C928.703 251.631 930.089 254.145 932.863 256.051C935.636 257.785 940.229 259.345 946.643 260.731L970.563 265.671C983.91 268.445 993.963 273.645 1000.72 281.271C1007.66 288.725 1011.12 297.565 1011.12 307.791C1011.12 320.791 1006.01 330.931 995.783 338.211C985.729 345.318 971.429 348.871 952.883 348.871Z" fill="black"/>
<path d="M813.387 348.871C799.52 348.871 787.3 345.925 776.727 340.031C766.153 334.138 757.833 325.991 751.767 315.591C745.873 305.191 742.927 293.318 742.927 279.971C742.927 266.625 745.873 254.751 751.767 244.351C757.833 233.951 766.153 225.805 776.727 219.911C787.3 214.018 799.52 211.071 813.387 211.071C825 211.071 835.4 213.238 844.587 217.571C853.947 221.731 861.573 227.538 867.467 234.991C873.533 242.445 877.433 251.198 879.167 261.251H841.467C839.56 254.838 836.093 249.985 831.067 246.691C826.213 243.398 820.493 241.751 813.907 241.751C807.667 241.751 802.207 243.311 797.527 246.431C793.02 249.551 789.553 253.971 787.127 259.691C784.7 265.411 783.487 272.171 783.487 279.971C783.487 287.771 784.7 294.531 787.127 300.251C789.553 305.971 793.02 310.391 797.527 313.511C802.207 316.631 807.667 318.191 813.907 318.191C820.493 318.191 826.213 316.545 831.067 313.251C836.093 309.958 839.56 305.105 841.467 298.691H879.167C877.433 308.745 873.533 317.498 867.467 324.951C861.573 332.405 853.947 338.298 844.587 342.631C835.4 346.791 825 348.871 813.387 348.871Z" fill="black"/>
<path d="M659.333 348.871C644.773 348.871 631.946 346.011 620.853 340.291C609.933 334.398 601.353 326.251 595.113 315.851C589.046 305.278 586.013 293.145 586.013 279.451C586.013 265.758 589.046 253.798 595.113 243.571C601.353 233.345 609.933 225.371 620.853 219.651C631.946 213.931 644.773 211.071 659.333 211.071C674.066 211.071 686.893 213.931 697.813 219.651C708.906 225.371 717.486 233.345 723.553 243.571C729.619 253.798 732.653 265.758 732.653 279.451C732.653 293.145 729.533 305.278 723.293 315.851C717.226 326.251 708.646 334.398 697.553 340.291C686.633 346.011 673.893 348.871 659.333 348.871ZM659.333 318.191C665.399 318.191 670.859 316.631 675.713 313.511C680.739 310.391 684.726 305.971 687.673 300.251C690.619 294.358 692.093 287.338 692.093 279.191C692.093 267.231 688.886 258.045 682.473 251.631C676.233 245.045 668.519 241.751 659.333 241.751C650.146 241.751 642.346 245.045 635.933 251.631C629.693 258.218 626.573 267.405 626.573 279.191C626.573 287.338 628.046 294.358 630.993 300.251C633.939 305.971 637.839 310.391 642.693 313.511C647.719 316.631 653.266 318.191 659.333 318.191Z" fill="black"/>
<path d="M422.237 346.271V315.071H469.557C483.077 315.071 494.517 312.385 503.877 307.011C513.41 301.465 520.604 293.925 525.457 284.391C530.484 274.858 532.997 263.938 532.997 251.631C532.997 239.498 530.57 228.838 525.717 219.651C520.864 210.465 513.67 203.271 504.137 198.071C494.777 192.871 483.25 190.271 469.557 190.271H423.017V159.071H469.557C490.53 159.071 508.817 162.885 524.417 170.511C540.017 177.965 552.064 188.711 560.557 202.751C569.224 216.618 573.557 233.085 573.557 252.151C573.557 271.218 569.224 287.858 560.557 302.071C551.89 316.111 539.757 327.031 524.157 334.831C508.73 342.458 490.617 346.271 469.817 346.271H422.237ZM397.797 346.271V159.071H437.837V346.271H397.797Z" fill="black"/>
</svg>
