<svg width="1046" height="350" viewBox="0 0 1046 350" fill="none" xmlns="http://www.w3.org/2000/svg">
<path d="M154.372 0L119.285 57.6889L234.098 245.73L137.974 348.871H219.32L308.796 253.021L154.372 0Z" fill="black"/>
<path d="M116.667 290.696L74.7927 245.719L145.273 130.201L110.103 72.624L0.0107422 253.01L89.4865 348.86H119.153L173.543 290.696H116.667Z" fill="black"/>
<path fill-rule="evenodd" clip-rule="evenodd" d="M932.307 330C923.354 322.471 918.419 312.665 917.501 300.582H917.501C917.604 301.944 917.759 303.278 917.964 304.582C919.583 314.847 924.363 323.32 932.307 330ZM983.001 318.66C983.001 318.66 983.001 318.66 983.001 318.66C983.514 318.66 984.018 318.656 984.513 318.647C984.018 318.656 983.514 318.66 983.001 318.66ZM1000.35 315.532C1000.51 315.441 1000.66 315.349 1000.82 315.254C1004.66 312.809 1006.58 309.403 1006.58 305.036C1006.58 301.717 1005.45 299.185 1003.17 297.438C1002.52 296.838 1001.69 296.271 1000.67 295.739C1001.69 296.271 1002.52 296.838 1003.17 297.438C1005.45 299.185 1006.58 301.717 1006.58 305.036C1006.58 309.403 1004.66 312.809 1000.82 315.254C1000.66 315.349 1000.51 315.441 1000.35 315.532ZM976.713 256.042C976.713 256.042 976.713 256.042 976.713 256.042ZM996.342 235.424C996.618 235.567 996.887 235.715 997.149 235.868C1001.34 238.139 1003.79 241.545 1004.48 246.086H1004.48C1003.79 241.545 1001.34 238.139 997.149 235.868C996.887 235.715 996.618 235.567 996.342 235.424ZM956.342 208.751C949.399 210.585 943.439 213.336 938.461 217.004C928.505 224.165 923.527 234.209 923.527 247.134C923.527 257.789 927.282 266.522 934.793 273.334C936.431 274.782 938.269 276.15 940.306 277.44C938.269 276.15 936.431 274.782 934.793 273.334C927.282 266.522 923.527 257.789 923.527 247.134C923.527 234.209 928.505 224.165 938.461 217.004C943.439 213.336 949.399 210.585 956.342 208.751ZM956.566 300C957.266 304.756 959.544 308.25 963.559 310.765C967.965 313.239 974.331 314.66 983.001 314.66C991.01 314.66 996.001 313.521 998.69 311.866C1001.42 310.119 1002.58 307.958 1002.58 305.036C1002.58 302.737 1001.86 301.472 1000.74 300.609L1000.6 300.503L1000.47 300.387C999.223 299.242 996.225 297.839 990.565 296.637L990.555 296.635L969.089 292.185L969.083 292.184C952.887 288.802 940.403 283.63 932.144 276.331L932.125 276.314L932.106 276.297C923.712 268.684 919.527 258.852 919.527 247.134C919.527 233.012 925.053 221.73 936.105 213.771C946.99 205.758 961.821 202 980.119 202C998.252 202 1013.18 205.674 1024.54 213.427C1036.02 221.091 1042.43 231.972 1043.58 245.754L1043.94 250.086H1001.05L1000.53 246.694C1000.03 243.443 998.384 241.086 995.244 239.385L995.188 239.355L995.133 239.323C991.811 237.385 986.685 236.2 979.333 236.2C972.616 236.2 968.243 237.231 965.671 238.774L965.644 238.79L965.617 238.806C963.465 240.052 962.635 241.565 962.635 243.728C962.635 245.415 963.266 246.75 965.022 247.98C967.217 249.328 971.252 250.768 977.54 252.128L977.558 252.132L1001.63 257.103L1001.63 257.104C1015.62 260.011 1026.62 265.554 1034.17 274.051C1041.83 282.298 1045.69 292.169 1045.69 303.464C1045.69 317.804 1039.95 329.259 1028.55 337.377L1028.54 337.384C1017.47 345.209 1002.12 348.86 983.001 348.86C962.946 348.86 946.522 344.836 934.112 336.375C921.589 327.837 914.653 315.908 913.512 300.885L913.186 296.582H956.064L956.566 300Z" fill="black"/>
<path fill-rule="evenodd" clip-rule="evenodd" d="M833.916 202C846.108 202 857.17 204.274 867.022 208.913C876.971 213.342 885.172 219.565 891.532 227.601C898.096 235.673 902.29 245.132 904.144 255.886L904.951 260.566H859.228L858.378 257.706C856.693 252.04 853.724 247.981 849.54 245.24L849.513 245.222L849.486 245.204C845.338 242.389 840.379 240.916 834.44 240.916C828.866 240.916 824.164 242.295 820.182 244.941C816.357 247.597 813.321 251.406 811.136 256.556C808.947 261.717 807.786 267.974 807.786 275.43C807.786 282.886 808.947 289.143 811.136 294.304C813.321 299.454 816.357 303.263 820.182 305.919C824.164 308.565 828.866 309.944 834.44 309.944C840.379 309.944 845.338 308.471 849.486 305.656L849.513 305.638L849.54 305.62C853.724 302.879 856.693 298.82 858.378 293.154L859.228 290.294H904.951L904.144 294.974C902.29 305.728 898.096 315.187 891.533 323.258C885.175 331.292 876.979 337.599 867.037 342.202L867.021 342.209L867.006 342.216C857.157 346.676 846.102 348.86 833.916 348.86C819.362 348.86 806.359 345.762 795.027 339.446C783.75 333.16 774.843 324.442 768.367 313.34L768.354 313.318L768.342 313.296C762.024 302.147 758.914 289.488 758.914 275.43C758.914 261.372 762.024 248.713 768.342 237.564L768.354 237.542L768.367 237.521C774.843 226.418 783.75 217.7 795.027 211.414C806.359 205.098 819.362 202 833.916 202Z" fill="black"/>
<path fill-rule="evenodd" clip-rule="evenodd" d="M710.553 339.746C722.356 333.476 731.56 324.757 738.064 313.611C744.753 302.273 748.046 289.332 748.046 274.906C748.046 260.5 744.849 247.721 738.317 236.709C731.803 225.729 722.588 217.186 710.782 211.096C699.106 204.983 685.525 202 670.162 202C654.959 202 641.386 204.989 629.553 211.091L629.542 211.097L629.53 211.103C617.904 217.193 608.711 225.724 602.034 236.667L602.021 236.688L602.008 236.709C595.476 247.721 592.278 260.5 592.278 274.906C592.278 289.315 595.477 302.244 601.979 313.577L601.998 313.611L602.018 313.644C608.685 324.755 617.866 333.463 629.487 339.734L629.52 339.752L629.553 339.769C641.386 345.871 654.959 348.86 670.162 348.86C685.364 348.86 698.86 345.871 710.532 339.757L710.543 339.752L710.553 339.746ZM684.559 305.829C688.949 303.104 692.486 299.224 695.153 294.056C697.78 288.793 699.174 282.366 699.174 274.644C699.174 263.302 696.148 255.197 690.652 249.7L690.614 249.662L690.577 249.623C685.055 243.794 678.337 240.916 670.162 240.916C661.994 240.916 655.173 243.792 649.467 249.643C644.086 255.335 641.15 263.487 641.15 274.644C641.15 282.366 642.545 288.793 645.172 294.056C647.85 299.247 651.315 303.129 655.53 305.846C659.939 308.575 664.785 309.944 670.162 309.944C675.55 309.944 680.294 308.571 684.505 305.863L684.532 305.846L684.559 305.829Z" fill="black"/>
<path fill-rule="evenodd" clip-rule="evenodd" d="M470.412 310.2H442.448V192.44H470.412C483.716 192.44 494.621 194.966 503.315 199.797L503.329 199.804L503.342 199.812C512.292 204.693 518.961 211.385 523.467 219.914C528.006 228.506 530.34 238.587 530.34 250.272C530.34 262.116 527.925 272.464 523.203 281.418L523.19 281.444L523.177 281.469C518.648 290.365 511.953 297.4 502.995 302.614C494.306 307.6 483.507 310.2 470.412 310.2ZM394.1 349.64V153H470.412C492.023 153 511.068 156.929 527.434 164.926C543.801 172.75 556.538 184.085 565.519 198.92C574.701 213.624 579.212 230.97 579.212 250.796C579.212 270.635 574.696 288.146 565.527 303.182L565.521 303.192L565.515 303.201C556.369 318.019 543.566 329.517 527.22 337.69L527.212 337.694L527.204 337.698C511.005 345.707 492.122 349.64 470.674 349.64H394.1Z" fill="black"/>
</svg>
