<svg width="48" height="48" viewBox="0 0 48 48" fill="none" xmlns="http://www.w3.org/2000/svg">
<g clip-path="url(#clip0_3560_2901)">
<path d="M24 48C37.2548 48 48 37.2548 48 24C48 10.7452 37.2548 0 24 0C10.7452 0 0 10.7452 0 24C0 37.2548 10.7452 48 24 48Z" fill="url(#paint0_linear_3560_2901)"/>
<path d="M12 36C18.6274 36 24 30.6274 24 24C24 17.3726 18.6274 12 12 12C5.37258 12 0 17.3726 0 24C0 30.6274 5.37258 36 12 36Z" fill="url(#paint1_linear_3560_2901)"/>
<path d="M24 48C30.6274 48 36 42.6274 36 36C36 29.3726 30.6274 24 24 24C17.3726 24 12 29.3726 12 36C12 42.6274 17.3726 48 24 48Z" fill="url(#paint2_linear_3560_2901)"/>
<path d="M24 24C30.6274 24 36 18.6274 36 12C36 5.37258 30.6274 0 24 0C17.3726 0 12 5.37258 12 12C12 18.6274 17.3726 24 24 24Z" fill="url(#paint3_linear_3560_2901)"/>
<path d="M36 36C42.6274 36 48 30.6274 48 24C48 17.3726 42.6274 12 36 12C29.3726 12 24 17.3726 24 24C24 30.6274 29.3726 36 36 36Z" fill="url(#paint4_linear_3560_2901)"/>
</g>
<defs>
<linearGradient id="paint0_linear_3560_2901" x1="0" y1="22.5" x2="48" y2="22.5" gradientUnits="userSpaceOnUse">
<stop stop-color="#E8B14D" stop-opacity="0"/>
<stop offset="1" stop-color="#E8B14D"/>
</linearGradient>
<linearGradient id="paint1_linear_3560_2901" x1="0" y1="0" x2="24" y2="0" gradientUnits="userSpaceOnUse">
<stop stop-color="#E8B14D" stop-opacity="0"/>
<stop offset="1" stop-color="#E8B14D"/>
</linearGradient>
<linearGradient id="paint2_linear_3560_2901" x1="24" y1="24" x2="24" y2="48" gradientUnits="userSpaceOnUse">
<stop stop-color="#E8B14D" stop-opacity="0"/>
<stop offset="1" stop-color="#E8B14D"/>
</linearGradient>
<linearGradient id="paint3_linear_3560_2901" x1="24" y1="0" x2="24" y2="24" gradientUnits="userSpaceOnUse">
<stop stop-color="#E8B14D" stop-opacity="0"/>
<stop offset="1" stop-color="#E8B14D"/>
</linearGradient>
<linearGradient id="paint4_linear_3560_2901" x1="48" y1="24" x2="25.5" y2="24" gradientUnits="userSpaceOnUse">
<stop stop-color="#E8B14D" stop-opacity="0"/>
<stop offset="1" stop-color="#E8B14D"/>
</linearGradient>
<clipPath id="clip0_3560_2901">
<rect width="48" height="48" fill="white"/>
</clipPath>
</defs>
</svg>
