<?xml version="1.0" encoding="UTF-8"?>
<svg id="Layer_1" data-name="Layer 1" xmlns="http://www.w3.org/2000/svg" version="1.1" viewBox="0 0 169.5 65.9">
  <defs>
    <style>
      .cls-1 {
        fill: #f7f9fb;
        stroke-width: 0px;
      }

      .cls-2 {
        isolation: isolate;
      }
    </style>
  </defs>
  <g>
    <path class="cls-1" d="M18.4,55.5l7.3-8.1c.1,0,0-.3-.2-.3h-8.2l-6.8-7.6v-.2l11.3-19.4v-.2l-4.7-8.1c0-.1-.3-.1-.4,0L0,40.1v.2l13.5,15.1h5-.1Z"/>
    <path class="cls-1" d="M23.3.1l-4.7,8.1v.2l4.9,8.4h0l13,22.3v.2l-6.8,7.7h0l-7.3,8.2c-.1,0,0,.3.2.3h11.1l13.5-15.1v-.2L23.7.1c0-.1-.3-.1-.4,0Z"/>
  </g>
  <g class="cls-2">
    <g class="cls-2">
      <g class="cls-2">
        <path class="cls-1" d="M90.2,35.6c0,9.7-7.1,17.1-16.5,17.1h-13.6V18.4h13.6c9.5,0,16.5,7.5,16.5,17.1ZM83.7,35.6c0-6.3-4.1-10.7-10-10.7h-6.9v21.4h6.9c5.9,0,10-4.4,10-10.7Z"/>
        <path class="cls-1" d="M93.5,40.5c0-7.3,5.7-12.9,12.9-12.9s13,5.6,13,12.9-5.8,12.9-13,12.9-12.9-5.6-12.9-12.9ZM113.1,40.5c0-4-2.9-6.8-6.7-6.8s-6.6,2.8-6.6,6.8,2.9,6.8,6.6,6.8,6.7-2.8,6.7-6.8Z"/>
        <path class="cls-1" d="M122.6,40.5c0-7.3,5.5-12.9,12.9-12.9s9,2.5,11,6.3l-5.4,3.2c-1-2-3.1-3.3-5.6-3.3-3.8,0-6.6,2.8-6.6,6.7s2.8,6.7,6.6,6.7,4.7-1.2,5.6-3.2l5.5,3.1c-2.1,3.8-6.3,6.4-11.1,6.4-7.4,0-12.9-5.6-12.9-12.9Z"/>
        <path class="cls-1" d="M168.3,45.5c0,5.3-4.6,7.8-9.8,7.8s-8.5-2.1-10.3-5.8l5.5-3.1c.7,2,2.4,3.2,4.8,3.2s3.4-.7,3.4-2.1c0-3.6-12.6-1.6-12.6-10.2s4.3-7.8,9.3-7.8,7.4,1.8,9.3,5.2l-5.4,2.9c-.7-1.6-2.1-2.5-3.9-2.5s-2.8.7-2.8,2c0,3.6,12.6,1.4,12.6,10.4Z"/>
      </g>
    </g>
  </g>
</svg>