<?xml version="1.0" encoding="UTF-8"?>
<svg id="Layer_1" data-name="Layer 1" xmlns="http://www.w3.org/2000/svg" version="1.1" viewBox="0 0 220.5 220.5">
  <defs>
    <style>
      .cls-1 {
        fill: #f7f9fb;
      }

      .cls-1, .cls-2, .cls-3, .cls-4, .cls-5, .cls-6, .cls-7, .cls-8, .cls-9, .cls-10 {
        stroke: #1b479e;
      }

      .cls-1, .cls-2, .cls-4, .cls-5, .cls-6, .cls-7, .cls-8, .cls-10 {
        stroke-width: .5px;
      }

      .cls-1, .cls-3, .cls-4, .cls-8, .cls-9 {
        stroke-linecap: round;
        stroke-linejoin: round;
      }

      .cls-2 {
        opacity: 0;
      }

      .cls-2, .cls-11, .cls-5, .cls-6, .cls-7, .cls-10 {
        fill: none;
      }

      .cls-2, .cls-5, .cls-6, .cls-7, .cls-10 {
        stroke-miterlimit: 10;
      }

      .cls-11, .cls-12 {
        stroke-width: 0px;
      }

      .cls-3, .cls-4 {
        fill: #1b479e;
      }

      .cls-3, .cls-9 {
        stroke-width: .5px;
      }

      .cls-5 {
        opacity: .2;
      }

      .cls-6 {
        opacity: .3;
      }

      .cls-12 {
        fill: #356efd;
      }

      .cls-7 {
        opacity: .5;
      }

      .cls-8, .cls-9 {
        fill: #dee6f3;
      }

      .cls-13 {
        isolation: isolate;
      }

      .cls-10 {
        opacity: .4;
      }
    </style>
  </defs>
  <rect class="cls-11" x=".2" y=".2" width="220" height="220"/>
  <g>
    <g>
      <path class="cls-12" d="M104.2,141.2l8.5-9.5c.1-.2,0-.4-.2-.4h-9.3c0,0-.1,0-.2,0l-7.9-8.9c0,0,0-.2,0-.3l13.2-22.7c0,0,0-.2,0-.2l-5.5-9.5c0-.2-.3-.2-.4,0l-19.6,33.7c0,0,0,.2,0,.3l15.7,17.7c0,0,.1,0,.2,0h5.3c0,0,.1,0,.2,0"/>
      <path class="cls-12" d="M110,76.5l-5.5,9.5c0,0,0,.2,0,.2l5.7,9.8,15.2,26c0,0,0,.2,0,.3l-8,9h0l-8.6,9.6c-.1.2,0,.4.2.4h12.8c0,0,.1,0,.2,0l15.7-17.7c0,0,0-.2,0-.3l-27.3-46.8c0-.2-.3-.2-.4,0"/>
    </g>
    <g>
      <circle class="cls-6" cx="110.2" cy="110.2" r="76.4"/>
      <circle class="cls-10" cx="110.2" cy="110.2" r="63.7"/>
      <circle class="cls-7" cx="110.2" cy="110.2" r="50.9"/>
      <circle class="cls-5" cx="110.2" cy="110.2" r="91.7"/>
      <circle class="cls-2" cx="110.2" cy="110.2" r="110"/>
    </g>
    <g>
      <rect class="cls-9" x="44.9" y="180.1" width="8.3" height="8.3" transform="translate(-26 9) rotate(-8.3)"/>
      <rect class="cls-3" x="53.1" y="179.3" width="3.3" height="8.3" transform="translate(-25.9 9.8) rotate(-8.3)"/>
    </g>
    <g class="cls-13">
      <polygon class="cls-1" points="30.6 66.2 21.7 78.3 6.7 76.6 15.6 64.6 30.6 66.2"/>
      <polygon class="cls-8" points="30.6 66.2 36.5 80 27.7 92.1 21.7 78.3 30.6 66.2"/>
      <polygon class="cls-4" points="21.7 78.3 27.7 92.1 12.7 90.4 6.7 76.6 21.7 78.3"/>
    </g>
    <g class="cls-13">
      <polygon class="cls-4" points="184.2 66.5 171.7 48.3 181.3 28.2 193.8 46.5 184.2 66.5"/>
      <polygon class="cls-1" points="181.3 28.2 203.4 26.6 215.9 44.9 193.8 46.5 181.3 28.2"/>
      <polygon class="cls-8" points="193.8 46.5 215.9 44.9 206.3 65 184.2 66.5 193.8 46.5"/>
    </g>
    <g class="cls-13">
      <polygon class="cls-1" points="156.9 154.1 152.5 160.1 145.1 159.3 149.5 153.3 156.9 154.1"/>
      <polygon class="cls-8" points="156.9 154.1 159.8 160.9 155.4 166.9 152.5 160.1 156.9 154.1"/>
      <polygon class="cls-4" points="152.5 160.1 155.4 166.9 148 166.1 145.1 159.3 152.5 160.1"/>
    </g>
  </g>
</svg>