<svg width="202" height="28" viewBox="0 0 202 28" fill="none" xmlns="http://www.w3.org/2000/svg">
<path d="M25.4097 23.2114C25.4097 23.2351 25.4191 23.2578 25.4359 23.2745C25.4526 23.2913 25.4753 23.3007 25.499 23.3007H34.1309C34.1546 23.3007 34.1773 23.2913 34.194 23.2745C34.2108 23.2578 34.2202 23.2351 34.2202 23.2114V19.7799C34.2202 19.7562 34.2108 19.7335 34.194 19.7168C34.1773 19.7 34.1546 19.6906 34.1309 19.6906H29.0964C29.0727 19.6906 29.0499 19.6812 29.0332 19.6645C29.0164 19.6477 29.007 19.625 29.007 19.6013V8.40115C29.0065 8.38366 29.0008 8.36673 28.9907 8.35245C28.9806 8.33817 28.9665 8.32718 28.9501 8.32084C28.9338 8.3145 28.9161 8.3131 28.899 8.31679C28.8819 8.32048 28.8662 8.32912 28.854 8.34163L25.4522 12.1686C25.4362 12.1843 25.4271 12.2057 25.4268 12.2281V23.2072" fill="#FFFFFF"/>
<path d="M39.1785 23.2114V12.7256C39.1789 12.7072 39.1735 12.6891 39.1632 12.6739C39.1529 12.6586 39.1381 12.6469 39.1208 12.6404C39.1036 12.6339 39.0848 12.6328 39.0669 12.6374C39.0491 12.642 39.0331 12.652 39.0212 12.6661L35.6195 16.493C35.6135 16.5124 35.6135 16.5332 35.6195 16.5526V23.2114C35.6195 23.2232 35.6218 23.2348 35.6263 23.2456C35.6307 23.2564 35.6373 23.2663 35.6456 23.2746C35.6539 23.2829 35.6637 23.2894 35.6746 23.2939C35.6854 23.2984 35.697 23.3007 35.7087 23.3007H39.1105C39.1341 23.3007 39.1569 23.2913 39.1736 23.2746C39.1904 23.2578 39.1997 23.2351 39.1997 23.2114" fill="#FFFFFF"/>
<path d="M57.667 17.9473C57.6576 17.932 57.6526 17.9143 57.6526 17.8963C57.6526 17.8783 57.6576 17.8606 57.667 17.8453L61.175 12.6279C61.1832 12.6146 61.1878 12.5994 61.1883 12.5839C61.1888 12.5683 61.1852 12.5529 61.1779 12.5391C61.1706 12.5254 61.1598 12.5138 61.1466 12.5055C61.1334 12.4972 61.1183 12.4924 61.1027 12.4918H57.1652C57.15 12.4921 57.135 12.4961 57.1217 12.5036C57.1083 12.511 57.097 12.5215 57.0887 12.5343L54.4992 16.7312C54.4891 16.748 54.4737 16.761 54.4555 16.7682C54.4373 16.7754 54.4172 16.7765 54.3984 16.7711C54.3795 16.7658 54.3629 16.7545 54.3512 16.7388C54.3394 16.7231 54.3331 16.704 54.3333 16.6844V8.40123C54.3337 8.3828 54.3283 8.36472 54.318 8.34946C54.3076 8.3342 54.2929 8.32252 54.2757 8.316C54.2584 8.30947 54.2396 8.30845 54.2217 8.31305C54.2039 8.31765 54.1879 8.32766 54.176 8.3417L50.7743 12.1686C50.7667 12.1878 50.7667 12.209 50.7743 12.2282V23.2072C50.7743 23.2309 50.7837 23.2536 50.8004 23.2704C50.8172 23.2871 50.8399 23.2965 50.8635 23.2965H54.2653C54.289 23.2965 54.3116 23.2871 54.3284 23.2704C54.3451 23.2536 54.3545 23.2309 54.3545 23.2072V19.6864V18.9933C54.3548 18.9746 54.361 18.9564 54.3722 18.9414C54.3834 18.9263 54.3991 18.9152 54.4169 18.9096C54.4348 18.9039 54.4541 18.9041 54.4719 18.9099C54.4897 18.9158 54.5051 18.9271 54.5161 18.9423L57.3863 23.254C57.3956 23.2655 57.4072 23.2749 57.4204 23.2815C57.4337 23.2882 57.4481 23.2918 57.4629 23.2923H61.2643C61.2805 23.2921 61.2964 23.2875 61.3102 23.279C61.324 23.2704 61.3353 23.2583 61.3427 23.2439C61.3502 23.2294 61.3535 23.2133 61.3524 23.1971C61.3514 23.1809 61.3459 23.1653 61.3366 23.1519L57.667 17.9473Z" fill="#FFFFFF"/>
<path d="M45.7816 16.4974C44.9014 16.2933 44.204 16.136 44.204 15.647C44.204 15.2728 44.5442 15.039 45.0928 15.039C45.3734 15.0404 45.6479 15.121 45.8848 15.2714C46.1217 15.4219 46.3114 15.636 46.4321 15.8894C46.4429 15.908 46.46 15.9221 46.4803 15.9291C46.5006 15.9362 46.5228 15.9356 46.5427 15.9277L49.2471 14.7115C49.2582 14.7065 49.2683 14.6993 49.2765 14.6903C49.2848 14.6813 49.2911 14.6707 49.2951 14.6591C49.2991 14.6475 49.3006 14.6353 49.2997 14.6231C49.2987 14.6109 49.2953 14.599 49.2896 14.5882C48.4392 13.066 47.0189 12.2921 45.0034 12.2921C42.0652 12.2921 40.7513 14.0737 40.7513 15.8383C40.7513 18.2493 42.8773 18.8149 44.4634 19.2103C45.3691 19.4442 46.0282 19.61 46.0282 20.0607C46.0282 20.3669 45.8411 20.7326 44.9652 20.7326C44.6056 20.7585 44.2471 20.6695 43.9414 20.4784C43.6357 20.2874 43.3986 20.0041 43.2643 19.6695C43.2597 19.6586 43.2529 19.6486 43.2444 19.6403C43.2358 19.6319 43.2257 19.6254 43.2146 19.621C43.2035 19.6167 43.1917 19.6146 43.1798 19.6149C43.1678 19.6152 43.1561 19.6179 43.1452 19.6228L40.3388 21.0345C40.3282 21.0394 40.3186 21.0465 40.3108 21.0553C40.3031 21.0641 40.2972 21.0744 40.2936 21.0856C40.29 21.0968 40.2888 21.1086 40.29 21.1203C40.2912 21.132 40.2948 21.1433 40.3006 21.1535C41.1212 22.7481 42.652 23.5177 44.9779 23.5177C47.1933 23.5177 49.5617 22.5908 49.5617 19.9757C49.5617 17.3606 47.3719 16.8716 45.7773 16.5017" fill="#FFFFFF"/>
<path d="M7.91652 24.47L11.0504 20.9493C11.0606 20.9362 11.067 20.9206 11.0689 20.9041C11.0708 20.8876 11.0681 20.8709 11.061 20.8559C11.054 20.8409 11.0429 20.8282 11.029 20.8191C11.0151 20.8101 10.9989 20.8051 10.9823 20.8047H7.53807C7.51246 20.8037 7.48816 20.793 7.47002 20.7749L4.54454 17.488C4.53429 17.4722 4.52886 17.4537 4.52886 17.4348C4.52886 17.416 4.53429 17.3975 4.54454 17.3817L9.43452 8.99221C9.44279 8.97879 9.44718 8.96332 9.44718 8.94755C9.44718 8.93179 9.44279 8.91632 9.43452 8.9029L7.39777 5.40339C7.38983 5.39018 7.37858 5.37925 7.36517 5.37166C7.35176 5.36407 7.33662 5.36008 7.32121 5.36008C7.3058 5.36008 7.29066 5.36407 7.27724 5.37166C7.26383 5.37925 7.25264 5.39018 7.2447 5.40339L0.016039 17.8409C0.00561311 17.8559 0 17.8737 0 17.892C0 17.9102 0.00561311 17.928 0.016039 17.943L5.8287 24.47C5.83705 24.4798 5.84754 24.4876 5.85932 24.4927C5.87111 24.4979 5.88389 24.5003 5.89675 24.4998H7.8655C7.87835 24.5003 7.89114 24.4979 7.90292 24.4927C7.91471 24.4876 7.92519 24.4798 7.93355 24.47" fill="#FFFFFF"/>
<path d="M10.0681 0.54329L8.027 4.04282C8.02079 4.05688 8.01761 4.07209 8.01761 4.08747C8.01761 4.10284 8.02079 4.11804 8.027 4.13211L10.1531 7.75919L15.7574 17.3818C15.7678 17.3968 15.7734 17.4146 15.7734 17.4328C15.7734 17.4511 15.7678 17.4689 15.7574 17.4839L12.8064 20.8006L9.6173 24.3511C9.60573 24.364 9.59816 24.3801 9.59556 24.3972C9.59295 24.4144 9.5954 24.432 9.60262 24.4478C9.60984 24.4636 9.62151 24.4769 9.6362 24.4862C9.65089 24.4954 9.66799 24.5002 9.68535 24.4999H14.3967C14.4096 24.5004 14.4224 24.498 14.4341 24.4929C14.4459 24.4877 14.4564 24.4799 14.4648 24.4702L20.2774 17.9431C20.2879 17.9281 20.2935 17.9103 20.2935 17.8921C20.2935 17.8738 20.2879 17.856 20.2774 17.8411L10.2041 0.54329C10.1962 0.530081 10.1849 0.519163 10.1715 0.511575C10.1581 0.503987 10.143 0.5 10.1275 0.5C10.1121 0.5 10.097 0.503987 10.0836 0.511575C10.0702 0.519163 10.059 0.530081 10.051 0.54329" fill="#FFFFFF"/>
<path d="M74.488 12.3C77.576 12.3 79.88 14.748 79.88 17.9C79.88 21.052 77.576 23.5 74.488 23.5H70.04V12.3H74.488ZM74.488 21.388C76.424 21.388 77.768 19.964 77.768 17.9C77.768 15.836 76.424 14.412 74.488 14.412H72.248V21.388H74.488ZM86.7423 23.724C83.5103 23.724 80.9342 21.164 80.9342 17.9C80.9342 14.62 83.5103 12.076 86.7423 12.076C89.9743 12.076 92.5663 14.62 92.5663 17.9C92.5663 21.164 89.9743 23.724 86.7423 23.724ZM86.7423 21.564C88.7743 21.564 90.3583 20.044 90.3583 17.9C90.3583 15.74 88.7743 14.22 86.7423 14.22C84.7103 14.22 83.1263 15.74 83.1263 17.9C83.1263 20.044 84.7103 21.564 86.7423 21.564ZM99.4301 23.724C96.0381 23.724 93.6061 21.164 93.6061 17.9C93.6061 14.62 96.0381 12.076 99.4301 12.076C101.478 12.076 103.286 13.116 104.246 14.716L102.342 15.82C101.798 14.828 100.71 14.22 99.4301 14.22C97.2381 14.22 95.7981 15.74 95.7981 17.9C95.7981 20.044 97.2381 21.564 99.4301 21.564C100.71 21.564 101.814 20.956 102.342 19.98L104.246 21.084C103.302 22.684 101.494 23.724 99.4301 23.724ZM109.779 23.724C107.331 23.724 105.507 22.252 105.507 19.836V12.3H107.699V19.66C107.699 20.748 108.275 21.564 109.779 21.564C111.283 21.564 111.859 20.748 111.859 19.66V12.3H114.067V19.836C114.067 22.252 112.243 23.724 109.779 23.724ZM127.016 12.3V23.5H124.824V16.236L121.672 21.436H121.416L118.264 16.252V23.5H116.056V12.3H118.328L121.544 17.596L124.744 12.3H127.016ZM131.311 21.388H136.031V23.5H129.103V12.3H135.951V14.412H131.311V16.796H135.551V18.876H131.311V21.388ZM144.067 12.3H146.275V23.5H144.595L139.795 16.652V23.5H137.587V12.3H139.267L144.067 19.132V12.3ZM155.76 12.3V14.412H152.737V23.5H150.529V14.412H147.521V12.3H155.76ZM163.381 23.5L162.709 21.484H158.245L157.573 23.5H155.189L159.109 12.3H161.845L165.781 23.5H163.381ZM158.949 19.42H162.021L160.485 14.844L158.949 19.42ZM173.464 12.3V14.412H170.44V23.5H168.232V14.412H165.224V12.3H173.464ZM174.696 12.3H176.904V23.5H174.696V12.3ZM184.274 23.724C181.042 23.724 178.465 21.164 178.465 17.9C178.465 14.62 181.042 12.076 184.274 12.076C187.506 12.076 190.098 14.62 190.098 17.9C190.098 21.164 187.506 23.724 184.274 23.724ZM184.274 21.564C186.306 21.564 187.89 20.044 187.89 17.9C187.89 15.74 186.306 14.22 184.274 14.22C182.242 14.22 180.658 15.74 180.658 17.9C180.658 20.044 182.242 21.564 184.274 21.564ZM198.129 12.3H200.337V23.5H198.657L193.857 16.652V23.5H191.649V12.3H193.329L198.129 19.132V12.3Z" fill="#FFFFFF"  stroke="#FFFFFF" stroke-width=".5"/>
</svg>
