<svg width="24" height="24" viewBox="0 0 24 24" fill="none" xmlns="http://www.w3.org/2000/svg">
<g clip-path="url(#clip0_6_1169)">
<mask id="mask0_6_1169" style="mask-type:luminance" maskUnits="userSpaceOnUse" x="0" y="0" width="24" height="24">
<path d="M24 0H0V24H24V0Z" fill="white"/>
<path d="M20.9598 4.56899C18.1269 2.13931 14.1409 2.67747 11.9998 5.1799L10.5957 6.94923C7.40051 10.9754 6.87868 17.4684 10.5268 21.0893L10.5901 21.152C11.371 21.9271 12.6299 21.9267 13.4108 21.1517L13.4726 21.0904C15.9254 18.6558 19.6369 14.9721 21.2893 13.2714C22.7295 11.789 23.3699 9.62989 22.7843 7.44688C22.486 6.33666 21.8393 5.32323 20.9598 4.56899Z" fill="black"/>
</mask>
<g mask="url(#mask0_6_1169)">
<path d="M3.04042 4.56899C5.87341 2.13931 9.85935 2.67747 12.0004 5.1799L13.4046 6.94923C16.5997 10.9754 17.1216 17.4684 13.4734 21.0893L13.4102 21.152C12.6293 21.9271 11.3704 21.9267 10.5894 21.1517L10.5277 21.0904C8.07484 18.6558 4.3634 14.9721 2.71098 13.2714C1.27073 11.789 0.630381 9.62989 1.21601 7.44688C1.51422 6.33666 2.16094 5.32323 3.04042 4.56899Z" fill="url(#paint0_linear_6_1169)"/>
</g>
<mask id="mask1_6_1169" style="mask-type:luminance" maskUnits="userSpaceOnUse" x="7" y="3" width="16" height="19">
<path d="M20.9598 4.56899C18.1269 2.13931 14.1409 2.67747 11.9998 5.1799L10.5957 6.94923C7.40051 10.9754 6.87868 17.4684 10.5268 21.0893L10.5901 21.152C11.371 21.9271 12.6299 21.9267 13.4108 21.1517L13.4726 21.0904C15.9254 18.6558 19.6369 14.9721 21.2893 13.2714C22.7295 11.789 23.3699 9.62989 22.7843 7.44688C22.486 6.33666 21.8393 5.32323 20.9598 4.56899Z" fill="white"/>
</mask>
<g mask="url(#mask1_6_1169)">
<g filter="url(#filter0_f_6_1169)">
<path d="M3.04042 4.56899C5.87341 2.13931 9.85935 2.67747 12.0004 5.1799L13.4046 6.94923C16.5997 10.9754 17.1216 17.4684 13.4734 21.0893L13.4102 21.152C12.6293 21.9271 11.3704 21.9267 10.5894 21.1517L10.5277 21.0904C8.07484 18.6558 4.3634 14.9721 2.71098 13.2714C1.27073 11.789 0.630381 9.62989 1.21601 7.44688C1.51422 6.33666 2.16094 5.32323 3.04042 4.56899Z" fill="url(#paint1_linear_6_1169)"/>
</g>
</g>
<path d="M20.9598 4.56899C18.1269 2.13931 14.1409 2.67747 11.9998 5.1799L10.5957 6.94923C7.40051 10.9754 6.87868 17.4684 10.5268 21.0893L10.5901 21.152C11.371 21.9271 12.6299 21.9267 13.4108 21.1517L13.4726 21.0904C15.9254 18.6558 19.6369 14.9721 21.2893 13.2714C22.7295 11.789 23.3699 9.62989 22.7843 7.44688C22.486 6.33666 21.8393 5.32323 20.9598 4.56899Z" fill="url(#paint2_linear_6_1169)"/>
<path d="M12.0001 5.17967C14.1413 2.67754 18.1272 2.13975 20.9601 4.56932C21.8393 5.32352 22.4861 6.3372 22.7843 7.44725C23.3697 9.63011 22.7293 11.7892 21.2892 13.2715L19.7159 14.8681C17.86 16.7358 15.3125 19.2648 13.4728 21.0908L13.4103 21.1513C12.6781 21.8781 11.5259 21.9241 10.7413 21.2881L10.59 21.1523L10.5265 21.0888C6.99275 17.5811 7.37202 11.3786 10.3038 7.33396L10.5958 6.9492L12.0001 5.17967ZM20.4718 5.13865C17.9674 2.99079 14.4565 3.46704 12.5734 5.66307L11.1827 7.41502C9.68961 9.29655 8.81374 11.7692 8.74429 14.1924C8.67499 16.6132 9.40965 18.9236 11.0548 20.5566L11.1183 20.6201C11.6066 21.1045 12.3933 21.104 12.8819 20.6191L12.9444 20.5576C15.4002 18.1202 19.1047 14.4435 20.7511 12.749C22.0127 11.4505 22.5746 9.5617 22.0597 7.64158C21.8017 6.68101 21.2393 5.79703 20.4718 5.13865Z" fill="url(#paint3_linear_6_1169)"/>
</g>
<defs>
<filter id="filter0_f_6_1169" x="-3" y="-1" width="23.0098" height="26.7332" filterUnits="userSpaceOnUse" color-interpolation-filters="sRGB">
<feFlood flood-opacity="0" result="BackgroundImageFix"/>
<feBlend mode="normal" in="SourceGraphic" in2="BackgroundImageFix" result="shape"/>
<feGaussianBlur stdDeviation="2" result="effect1_foregroundBlur_6_1169"/>
</filter>
<linearGradient id="paint0_linear_6_1169" x1="8.505" y1="3" x2="8.505" y2="21.733" gradientUnits="userSpaceOnUse">
<stop stop-color="#575757"/>
<stop offset="1" stop-color="#151515"/>
</linearGradient>
<linearGradient id="paint1_linear_6_1169" x1="8.505" y1="3" x2="8.505" y2="21.733" gradientUnits="userSpaceOnUse">
<stop stop-color="#575757"/>
<stop offset="1" stop-color="#151515"/>
</linearGradient>
<linearGradient id="paint2_linear_6_1169" x1="14.0003" y1="3" x2="14.0003" y2="21.733" gradientUnits="userSpaceOnUse">
<stop stop-color="#E3E3E5" stop-opacity="0.6"/>
<stop offset="1" stop-color="#BBBBC0" stop-opacity="0.6"/>
</linearGradient>
<linearGradient id="paint3_linear_6_1169" x1="15.4952" y1="3" x2="15.4952" y2="13.849" gradientUnits="userSpaceOnUse">
<stop stop-color="white"/>
<stop offset="1" stop-color="white" stop-opacity="0"/>
</linearGradient>
<clipPath id="clip0_6_1169">
<rect width="24" height="24" fill="white"/>
</clipPath>
</defs>
</svg>
