<svg width="24" height="24" viewBox="0 0 24 24" fill="none" xmlns="http://www.w3.org/2000/svg">
<g clip-path="url(#clip0_6_1246)">
<mask id="mask0_6_1246" style="mask-type:luminance" maskUnits="userSpaceOnUse" x="0" y="0" width="24" height="24">
<path d="M24 0H0V24H24V0Z" fill="white"/>
<path d="M18.5 10C18.5 14.6943 14.6943 18.5 10 18.5C5.30567 18.5 1.5 14.6943 1.5 10C1.5 5.30567 5.30567 1.5 10 1.5C14.6943 1.5 18.5 5.30567 18.5 10Z" fill="black"/>
</mask>
<g mask="url(#mask0_6_1246)">
<path d="M10.5858 10.5859C11.3669 9.80486 12.6329 9.80486 13.414 10.5859L21.914 19.0859L22.0517 19.2373C22.6924 20.0228 22.6462 21.1818 21.914 21.914C21.1817 22.6463 20.0227 22.6925 19.2372 22.0517L19.0858 21.914L10.5858 13.414C9.80475 12.633 9.80475 11.367 10.5858 10.5859Z" fill="url(#paint0_linear_6_1246)"/>
</g>
<mask id="mask1_6_1246" style="mask-type:luminance" maskUnits="userSpaceOnUse" x="1" y="1" width="18" height="18">
<path d="M18.5 10C18.5 14.6943 14.6943 18.5 10 18.5C5.30567 18.5 1.5 14.6943 1.5 10C1.5 5.30567 5.30567 1.5 10 1.5C14.6943 1.5 18.5 5.30567 18.5 10Z" fill="white"/>
</mask>
<g mask="url(#mask1_6_1246)">
<g filter="url(#filter0_f_6_1246)">
<path d="M10.5858 10.5859C11.3669 9.80486 12.6329 9.80486 13.414 10.5859L21.914 19.0859L22.0517 19.2373C22.6924 20.0228 22.6462 21.1818 21.914 21.914C21.1817 22.6463 20.0227 22.6925 19.2372 22.0517L19.0858 21.914L10.5858 13.414C9.80475 12.633 9.80475 11.367 10.5858 10.5859Z" fill="url(#paint1_linear_6_1246)"/>
</g>
</g>
<path d="M18.5 10C18.5 14.6943 14.6943 18.5 10 18.5C5.30567 18.5 1.5 14.6943 1.5 10C1.5 5.30567 5.30567 1.5 10 1.5C14.6943 1.5 18.5 5.30567 18.5 10Z" fill="url(#paint2_linear_6_1246)"/>
<path d="M17.75 10C17.75 5.71989 14.2801 2.25 10 2.25C5.71989 2.25 2.25 5.71989 2.25 10C2.25 14.2801 5.71989 17.75 10 17.75V18.5C5.30567 18.5 1.5 14.6943 1.5 10C1.5 5.30567 5.30567 1.5 10 1.5C14.6943 1.5 18.5 5.30567 18.5 10C18.5 14.6943 14.6943 18.5 10 18.5V17.75C14.2801 17.75 17.75 14.2801 17.75 10Z" fill="url(#paint3_linear_6_1246)"/>
</g>
<defs>
<filter id="filter0_f_6_1246" x="6" y="6.00012" width="20.5" height="20.4999" filterUnits="userSpaceOnUse" color-interpolation-filters="sRGB">
<feFlood flood-opacity="0" result="BackgroundImageFix"/>
<feBlend mode="normal" in="SourceGraphic" in2="BackgroundImageFix" result="shape"/>
<feGaussianBlur stdDeviation="2" result="effect1_foregroundBlur_6_1246"/>
</filter>
<linearGradient id="paint0_linear_6_1246" x1="16.2498" y1="10" x2="16.2498" y2="22.5" gradientUnits="userSpaceOnUse">
<stop stop-color="#575757"/>
<stop offset="1" stop-color="#151515"/>
</linearGradient>
<linearGradient id="paint1_linear_6_1246" x1="16.2498" y1="10" x2="16.2498" y2="22.5" gradientUnits="userSpaceOnUse">
<stop stop-color="#575757"/>
<stop offset="1" stop-color="#151515"/>
</linearGradient>
<linearGradient id="paint2_linear_6_1246" x1="10" y1="1.5" x2="10" y2="18.5" gradientUnits="userSpaceOnUse">
<stop stop-color="#E3E3E5" stop-opacity="0.6"/>
<stop offset="1" stop-color="#BBBBC0" stop-opacity="0.6"/>
</linearGradient>
<linearGradient id="paint3_linear_6_1246" x1="10" y1="1.5" x2="10" y2="11.345" gradientUnits="userSpaceOnUse">
<stop stop-color="white"/>
<stop offset="1" stop-color="white" stop-opacity="0"/>
</linearGradient>
<clipPath id="clip0_6_1246">
<rect width="24" height="24" fill="white"/>
</clipPath>
</defs>
</svg>
