<?xml version="1.0" encoding="UTF-8"?>
<svg xmlns="http://www.w3.org/2000/svg" version="1.1" viewBox="0 0 269 66">
  <!-- Generator: Adobe Illustrator 28.7.1, SVG Export Plug-In . SVG Version: 1.2.0 Build 142)  -->
  <g>
    <g id="Layer_1">
      <path d="M8.1,37.7h6.1v3.9h-6.1v8.9c0,1,.3,1.7.8,2.3.5.5,1.3.8,2.3.8h3.1v4.5h-2.9c-1.9,0-3.5-.2-4.7-.7-1.2-.5-2.1-1.3-2.7-2.5-.6-1.2-.9-2.7-.9-4.7v-8.6H0v-3.9h3.2v-5.6h5v5.6h0ZM28.8,37h-.2c-1.6,0-2.8.4-3.9,1.1-1,.7-1.7,1.7-2.2,3v-10.3h-5.3v27h5.3v-11.6c0-1.3.4-2.4,1.1-3.2.8-.8,1.7-1.2,3-1.2s2.1.4,2.8,1.1c.7.7,1.1,1.7,1.1,2.9v11.9h5.3v-11.5c0-3-.6-5.3-1.8-6.9-1.2-1.6-2.9-2.4-5.2-2.4h0ZM57.6,42.2c.8,1.5,1.1,3.2,1.1,5v1.9h-15c0,.7.2,1.4.5,2,.4.9,1,1.7,1.8,2.2.8.5,1.8.8,3.1.8s2.2-.2,3-.7c.8-.5,1.3-1.1,1.5-1.8h4.9c-.3,1.4-.9,2.6-1.7,3.6-.8,1-1.9,1.9-3.2,2.4-1.3.6-2.8.8-4.5.8s-3.2-.3-4.5-.9c-1.3-.6-2.4-1.4-3.2-2.4-.9-1-1.5-2.1-1.9-3.3-.4-1.2-.6-2.5-.6-3.8v-.7c0-1.3.2-2.6.6-3.8.4-1.2,1.1-2.3,1.9-3.3s1.9-1.8,3.2-2.3c1.3-.6,2.7-.9,4.4-.9s4,.5,5.5,1.4c1.5,1,2.6,2.2,3.3,3.8h0ZM44.2,44.3c-.2.5-.3,1-.4,1.5h9.9c0-.6-.2-1.2-.4-1.7-.4-.9-.9-1.6-1.7-2.1-.7-.5-1.7-.7-2.8-.7s-2.1.3-2.8.8c-.8.5-1.4,1.3-1.8,2.2h0ZM84.3,43.1c-1.5-.7-3.2-1.1-5.1-1.3l-2.3-.2c-1.3-.1-2.3-.5-2.9-1.1-.6-.6-.9-1.3-.9-2.1s.2-1.3.5-1.9c.3-.6.8-1,1.5-1.4.7-.3,1.5-.5,2.5-.5s1.9.2,2.6.6c.7.4,1.2.9,1.6,1.5.3.6.5,1.3.5,2h5.3c0-1.8-.4-3.3-1.2-4.6-.8-1.3-1.9-2.3-3.4-3-1.5-.7-3.3-1.1-5.3-1.1s-3.7.3-5.2,1c-1.5.7-2.6,1.6-3.4,2.9-.8,1.2-1.2,2.7-1.2,4.5s.8,4.2,2.3,5.6c1.6,1.4,3.6,2.2,6.2,2.4l2.3.2c1.7.1,3,.5,3.8,1.1.8.6,1.2,1.3,1.2,2.3s-.2,1.4-.6,2c-.4.6-1,1.1-1.9,1.4-.8.4-1.9.5-3.1.5s-2.5-.2-3.4-.6c-.8-.4-1.5-.9-1.9-1.6-.4-.7-.6-1.3-.6-2.1h-5.3c0,1.7.4,3.3,1.3,4.6.9,1.3,2.1,2.4,3.8,3.2s3.7,1.1,6.1,1.1,4.2-.4,5.8-1.1c1.6-.7,2.9-1.7,3.8-3,.9-1.3,1.3-2.8,1.3-4.5s-.4-3-1.2-4.1-1.9-2-3.4-2.7h0ZM104.4,49.5c0,1.3-.4,2.3-1.1,3-.7.7-1.7,1.1-2.9,1.1s-2-.3-2.7-1.1c-.7-.7-1-1.7-1-2.9v-12.1h-5.3v11.7c0,3,.6,5.3,1.9,6.8,1.3,1.5,3.1,2.3,5.4,2.3h.2c1.6,0,2.8-.3,3.9-1,1-.7,1.8-1.7,2.3-3.1.2-.4.3-.8.4-1.3v4.7h4.2v-20.1h-5.3v11.9ZM135,43.3c.4,1.2.6,2.6.6,4v.8c0,1.5-.2,2.8-.6,4.1-.4,1.3-1,2.4-1.9,3.3s-1.8,1.7-3,2.2c-1.1.5-2.4.8-3.9.8s-2.9-.3-4.1-.9c-1.1-.5-1.9-1.3-2.6-2.4v10h-5.3v-27.5h4.2v5.1c.2-.6.4-1.1.6-1.6.8-1.4,1.8-2.4,3-3.1,1.3-.7,2.7-1,4.2-1s2.7.3,3.9.8c1.1.5,2.1,1.3,3,2.2.8.9,1.5,2,1.9,3.3h0ZM130.4,47.7c0-1.2-.2-2.3-.7-3.2-.5-.9-1.1-1.6-1.9-2.2-.8-.5-1.8-.8-2.8-.8s-1.9.2-2.7.6c-.8.4-1.5,1.1-2,1.9-.5.9-.8,1.9-.8,3.1v1.4c0,1.1.3,2.1.8,2.9.5.8,1.2,1.4,2.1,1.9s1.7.6,2.7.6,2-.3,2.8-.8c.8-.5,1.4-1.3,1.9-2.2.5-.9.7-2,.7-3.3h0ZM156.4,42.2c.8,1.5,1.1,3.2,1.1,5v1.9h-15c0,.7.2,1.4.5,2,.4.9,1,1.7,1.8,2.2s1.8.8,3.1.8,2.2-.2,3-.7c.8-.5,1.3-1.1,1.5-1.8h4.9c-.3,1.4-.9,2.6-1.7,3.6-.8,1-1.9,1.9-3.2,2.4-1.3.6-2.8.8-4.5.8s-3.2-.3-4.5-.9c-1.3-.6-2.4-1.4-3.2-2.4s-1.5-2.1-1.9-3.3c-.4-1.2-.6-2.5-.6-3.8v-.7c0-1.3.2-2.6.6-3.8.4-1.2,1.1-2.3,1.9-3.3.8-1,1.9-1.8,3.2-2.3,1.3-.6,2.7-.9,4.4-.9s4,.5,5.5,1.4c1.5,1,2.6,2.2,3.3,3.8h0ZM143,44.3c-.2.5-.3,1-.4,1.5h9.9c0-.6-.2-1.2-.4-1.7-.4-.9-.9-1.6-1.7-2.1-.7-.5-1.7-.7-2.8-.7s-2.1.3-2.8.8c-.8.5-1.4,1.3-1.8,2.2h0ZM166.4,39.7c-.9,1.1-1.5,2.7-1.7,4.6v-6.6h-4.2v20.1h5.3v-10.4c0-1.7.5-3,1.4-4,.9-.9,2.3-1.4,4-1.4h1.4v-4.6h-.8c-2.4,0-4.2.8-5.4,2.3h0ZM187.2,52.2c-.4.5-.9,1-1.5,1.3-.6.3-1.4.5-2.3.5s-2.1-.3-2.8-.8c-.7-.5-1.3-1.3-1.6-2.2-.3-.9-.5-2-.5-3.2s.2-2.3.6-3.2c.4-.9.9-1.7,1.6-2.2.7-.5,1.6-.8,2.7-.8s2.3.3,3,1c.7.7,1.1,1.5,1.3,2.6h5.2c0-1.6-.6-3.1-1.4-4.3-.8-1.2-1.9-2.2-3.3-2.8-1.4-.7-3-1-4.7-1s-3.1.3-4.4.9c-1.3.6-2.3,1.4-3.2,2.3-.9,1-1.5,2.1-1.9,3.3-.4,1.3-.6,2.6-.6,3.9v.7c0,1.3.2,2.5.6,3.8.4,1.2,1.1,2.3,1.9,3.3.9,1,1.9,1.8,3.2,2.4,1.3.6,2.8.9,4.5.9s3.4-.3,4.8-1c1.4-.7,2.5-1.7,3.4-2.9.8-1.2,1.3-2.7,1.4-4.3h-5.1c0,.7-.3,1.3-.7,1.9h0ZM207.3,37h-.2c-1.6,0-2.8.4-3.9,1.1-1,.7-1.7,1.7-2.2,3v-10.3h-5.3v27h5.3v-11.6c0-1.3.4-2.4,1.1-3.2.8-.8,1.7-1.2,3-1.2s2.1.4,2.8,1.1c.7.7,1.1,1.7,1.1,2.9v11.9h5.3v-11.5c0-3-.6-5.3-1.8-6.9s-2.9-2.4-5.2-2.4h0ZM233.8,40.8c.7,1.2,1.1,2.7,1.1,4.6v12.4h-4.2v-3.9c-.2.5-.4,1-.6,1.4-.6,1-1.3,1.7-2.3,2.2-1,.5-2.2.8-3.6.8s-2.7-.3-3.8-.8c-1.1-.5-1.9-1.3-2.6-2.2-.6-1-.9-2.1-.9-3.5s.4-2.7,1.1-3.6c.7-.9,1.8-1.6,3.1-2.1s2.9-.7,4.7-.7h4c0-1.3-.3-2.1-.8-2.7-.6-.6-1.4-.8-2.6-.8s-1.3,0-2.2,0c-.9,0-1.7,0-2.6,0s-1.7,0-2.4.1v-4.5c.6,0,1.2,0,1.9-.1.7,0,1.5,0,2.2,0,.8,0,1.5,0,2.2,0,2.1,0,3.8.3,5.2.8,1.4.6,2.4,1.4,3.1,2.6h0ZM229.1,52.9c.4-.6.6-1.5.7-2.5v-1.8h-4.1c-1.2,0-2,.3-2.7.8-.6.6-.9,1.3-.9,2.2s.3,1.6.9,2.2c.6.6,1.5.8,2.7.8s1.3-.1,1.9-.4c.6-.3,1.1-.7,1.5-1.3ZM237.1,37.7v4h2.8v16.2h5.3v-20.1h-8.1ZM241.9,35.3c1,0,1.8-.3,2.3-.8.5-.5.7-1.2.7-2.1s-.2-1.5-.7-2.1c-.5-.5-1.2-.8-2.3-.8s-1.8.3-2.3.8c-.5.5-.7,1.2-.7,2.1s.2,1.5.7,2.1c.5.5,1.3.8,2.3.8ZM266.5,39.4c-1.2-1.5-3-2.3-5.4-2.3h-.2c-1.6,0-2.9.3-4,1-1.1.7-1.9,1.7-2.4,3.1-.2.5-.3,1-.4,1.5v-5h-4.2v20.1h5.3v-11.8c0-1.3.4-2.3,1.1-3,.8-.8,1.7-1.1,3-1.1s2.2.4,2.8,1.1c.7.7,1,1.7,1,2.9v11.9h5.3v-11.5c0-3.1-.6-5.4-1.8-6.9h0ZM133.1,3.2h4.7v13.5h3.1V3.2h4.7V.5h-12.5v2.7ZM173,5.3c.4,1,.5,2,.5,3v.5c0,.9-.2,1.8-.5,2.8-.3,1-.9,1.9-1.6,2.7-.7.8-1.6,1.5-2.7,2-1.1.5-2.3.8-3.8.8s-2.7-.3-3.8-.8c-1.1-.5-2-1.2-2.7-2-.7-.8-1.2-1.7-1.6-2.7-.3-1-.5-1.9-.5-2.8v-.5c0-1,.2-2,.5-3,.4-1,.9-1.9,1.6-2.7.7-.8,1.6-1.5,2.7-1.9,1.1-.5,2.3-.7,3.8-.7s2.7.2,3.7.7c1.1.5,1.9,1.1,2.7,1.9.7.8,1.3,1.7,1.6,2.7ZM170.4,8.6c0-.8-.1-1.6-.4-2.3-.3-.7-.6-1.3-1.1-1.8-.5-.5-1-.9-1.7-1.2-.7-.3-1.4-.4-2.2-.4s-1.6.1-2.3.4c-.7.3-1.2.7-1.7,1.2-.5.5-.8,1.1-1.1,1.8-.2.7-.4,1.4-.4,2.3s.1,1.5.4,2.2c.2.7.6,1.3,1.1,1.8.5.5,1.1.9,1.7,1.2s1.4.4,2.3.4,1.6-.1,2.3-.4c.7-.3,1.2-.7,1.7-1.2.5-.5.8-1.1,1.1-1.8.2-.7.4-1.4.4-2.2ZM190.6,14.1h-.3l-6.9-13.7h-5.1v16.2h2.9V3h.3l7,13.7h5.1V.5h-2.9v13.7ZM86.2,9.5c.5.6.7,1.4.7,2.4v.3c0,1-.2,1.8-.6,2.5-.4.7-1.1,1.2-1.9,1.6-.8.4-1.9.5-3.1.5h-6.5V.4h5.8c1.8,0,3.2.4,4.2,1.2.9.8,1.4,1.9,1.4,3.3v.3c0,1-.2,1.8-.7,2.4-.3.3-.6.6-.9.8.7.3,1.2.6,1.6,1.1h0ZM77.9,2.8v4.5h3c.8,0,1.4-.2,1.7-.6.4-.4.5-.9.5-1.6s-.2-1.2-.5-1.6c-.4-.4-.9-.6-1.7-.6h-3ZM83.8,12c0-.7-.2-1.3-.6-1.7-.4-.4-1-.6-1.7-.6h-3.6v4.6h3.6c.8,0,1.3-.2,1.7-.6s.6-1,.6-1.7ZM102.5,10.3c0,.8-.1,1.5-.4,2.1-.3.6-.7,1-1.3,1.4-.6.3-1.3.5-2.1.5s-1.6-.2-2.1-.5c-.6-.3-1-.8-1.3-1.4-.3-.6-.4-1.3-.4-2.1V.5h-3.1v9.7c0,1.4.3,2.6.8,3.7.5,1,1.3,1.8,2.4,2.4,1,.6,2.3.9,3.8.9s2.8-.3,3.8-.9c1-.6,1.8-1.4,2.3-2.4s.8-2.3.8-3.7V.5h-3.1v9.9h0ZM111.6,16.7h3.1V.5h-3.1v16.2ZM124.9.5h-3.1v16.2h9.7v-2.7h-6.6V.5Z"/>
    </g>
  </g>
</svg>