<svg width="18" height="18" viewBox="0 0 18 18" fill="none" xmlns="http://www.w3.org/2000/svg">
<g id="Frame" clip-path="url(#clip0_34_2)">
<path id="Vector" fill-rule="evenodd" clip-rule="evenodd" d="M9 0C4.03012 0 0 4.13137 0 9.22762C0 13.305 2.57888 16.764 6.15487 17.9839C6.60488 18.0694 6.76987 17.784 6.76987 17.5402C6.76987 17.3201 6.76125 16.5934 6.7575 15.8224C4.25362 16.3804 3.72525 14.7334 3.72525 14.7334C3.31575 13.6669 2.72587 13.3834 2.72587 13.3834C1.9095 12.8104 2.78775 12.8224 2.78775 12.8224C3.6915 12.8872 4.16738 13.773 4.16738 13.773C4.96987 15.1837 6.27262 14.7761 6.78638 14.5402C6.867 13.944 7.10025 13.5367 7.3575 13.3065C5.35875 13.0729 3.25725 12.2816 3.25725 8.74575C3.25725 7.7385 3.60863 6.915 4.18463 6.26887C4.09088 6.03637 3.783 5.09775 4.27163 3.82687C4.27163 3.82687 5.02763 3.579 6.74738 4.77262C7.46513 4.56825 8.23538 4.46587 9 4.46212C9.765 4.46587 10.5356 4.56825 11.2549 4.77262C12.9724 3.579 13.7272 3.82687 13.7272 3.82687C14.217 5.09812 13.9087 6.03637 13.8154 6.26887C14.3929 6.915 14.7416 7.7385 14.7416 8.74575C14.7416 12.2902 12.6364 13.0706 10.632 13.299C10.9549 13.5855 11.2425 14.1469 11.2425 15.0079C11.2425 16.2424 11.2324 17.2361 11.2324 17.5402C11.2324 17.7859 11.3944 18.0735 11.8504 17.9827C15.4245 16.7614 18 13.3035 18 9.22762C18 4.13137 13.9706 0 9 0Z" fill="#4070F4"/>
<path id="Vector_2" fill-rule="evenodd" clip-rule="evenodd" d="M3.40875 13.2492C3.38888 13.2953 3.31875 13.3088 3.25463 13.2773C3.18938 13.2473 3.15263 13.1847 3.17363 13.1385C3.19313 13.0913 3.26363 13.0785 3.32888 13.1097C3.39413 13.14 3.43125 13.2034 3.40875 13.2492ZM3.77325 13.6662C3.7305 13.7067 3.6465 13.6879 3.5895 13.6234C3.53063 13.5589 3.51975 13.473 3.56325 13.4318C3.6075 13.3905 3.68888 13.41 3.74775 13.4742C3.80663 13.5394 3.81825 13.6249 3.77325 13.6662ZM4.128 14.1975C4.07325 14.2369 3.98288 14.2002 3.927 14.118C3.87188 14.0355 3.87188 13.9373 3.9285 13.8979C3.98438 13.8585 4.07288 13.8942 4.1295 13.9755C4.18463 14.0588 4.18463 14.1574 4.128 14.1975ZM4.61438 14.7113C4.56488 14.7668 4.45988 14.7518 4.383 14.6757C4.30425 14.6014 4.2825 14.4957 4.332 14.4398C4.38188 14.3839 4.48763 14.3997 4.56488 14.475C4.64325 14.5493 4.66688 14.6558 4.61438 14.7113ZM5.28488 15.009C5.26313 15.0814 5.16188 15.114 5.05988 15.0837C4.95863 15.0518 4.89188 14.9674 4.91213 14.8943C4.9335 14.8215 5.03513 14.787 5.13788 14.82C5.23913 14.8515 5.30625 14.9355 5.28488 15.009ZM6.02175 15.0645C6.024 15.1407 5.93775 15.2033 5.8305 15.2048C5.72288 15.2074 5.63588 15.1459 5.63475 15.0709C5.63475 14.994 5.7195 14.9318 5.82675 14.9299C5.934 14.9277 6.02175 14.9888 6.02175 15.0645ZM6.70688 14.9449C6.71963 15.0192 6.64538 15.0953 6.53925 15.1155C6.43463 15.135 6.33788 15.0893 6.32475 15.0158C6.31163 14.9397 6.38738 14.8632 6.49163 14.8433C6.59813 14.8245 6.69338 14.8699 6.70688 14.9449Z" fill="#4070F4"/>
</g>
<defs>
<clipPath id="clip0_34_2">
<rect width="18" height="18" fill="white"/>
</clipPath>
</defs>
</svg>
